<?xml version="1.0" encoding="UTF-8"?>
<svg id="Layer_2" data-name="Layer 2" xmlns="http://www.w3.org/2000/svg" viewBox="0 0 548.8 257.3">
  <defs>
    <style>
      .cls-1 {
        fill: #151630;
      }

      .cls-1, .cls-2, .cls-3, .cls-4, .cls-5, .cls-6 {
        stroke-width: 0px;
      }

      .cls-2 {
        fill: #ea9233;
      }

      .cls-3 {
        fill: #56585e;
      }

      .cls-4 {
        fill: none;
      }

      .cls-5 {
        fill: #f25222;
      }

      .cls-6 {
        fill: #fff;
      }
    </style>
  </defs>
  <g id="Layer_1-2" data-name="Layer 1">
    <rect class="cls-4" width="548.8" height="257.3"/>
    <g>
      <g>
        <path class="cls-5" d="M340.43,159.3c-.15-.12-.26-.12-.32,0-.13.12-.13.25,0,.37.13.12.25.2.38.24.12.03.19-.05.19-.24,0-.12-.08-.25-.24-.37"/>
        <path class="cls-3" d="M306.52,118.37c-.46-.21-1.02-.31-1.65-.31h-3.16v6.94h1.96v-1.81h1.2c.64,0,1.19-.1,1.65-.31.46-.21.81-.5,1.06-.89.25-.38.37-.84.37-1.37s-.11-.98-.37-1.36c-.24-.39-.6-.69-1.06-.89M305.68,121.36c-.2.18-.51.27-.92.27h-1.08v-2.02h1.08c.41,0,.72.09.92.28.2.18.31.42.31.73s-.11.58-.31.75M317.89,123.47h3.63v1.53h-5.57v-6.94h5.44v1.52h-3.5v1.16h3.08v1.46h-3.08v1.27ZM334.23,118.06h1.92v6.94h-1.62l-3.06-3.7v3.7h-1.91v-6.94h1.61l3.06,3.7v-3.7ZM343.82,118.06h6.22v1.55h-2.12v5.39h-1.96v-5.39h-2.13v-1.55ZM363.6,121.99c.25-.38.37-.84.37-1.37s-.13-.98-.37-1.36c-.25-.39-.6-.69-1.06-.89-.46-.21-1.01-.31-1.64-.31h-3.17v6.94h1.96v-1.85h1.06l1.25,1.85h2.1l-1.5-2.19c.42-.2.76-.47.99-.82M361.68,119.88c.21.18.32.42.32.73s-.11.58-.32.76c-.2.18-.51.27-.91.27h-1.08v-2.03h1.08c.41,0,.72.09.91.28M378.45,118.06v3.86c0,1.02-.28,1.81-.86,2.38-.58.56-1.37.85-2.39.85s-1.82-.29-2.41-.85c-.56-.56-.85-1.35-.85-2.38v-3.86h1.96v3.8c0,.59.11,1.01.35,1.27.23.25.55.38.96.38s.73-.13.96-.38c.23-.26.34-.68.34-1.27v-3.8h1.94ZM209.64,122.25v-1.6h84.39v1.6h-84.39ZM386.06,122.25v-1.6h84.4v1.6h-84.4Z"/>
        <path class="cls-6" d="M297.7,101.86c.45.8.68,1.79.68,2.98,0,1.38-.4,2.66-1.2,3.82-.79,1.15-1.95,2.09-3.51,2.79-1.56.7-3.53,1.06-5.87,1.06-1.9,0-3.74-.22-5.51-.65-1.77-.43-3.24-1-4.39-1.69l2.46-5.58c1.08.63,2.29,1.13,3.61,1.51,1.33.37,2.63.57,3.88.57.74,0,1.31-.05,1.73-.15.42-.1.72-.24.93-.42.2-.19.29-.41.29-.67,0-.41-.24-.73-.68-.97-.46-.24-1.05-.44-1.81-.6-.74-.16-1.56-.34-2.44-.52-.89-.19-1.78-.43-2.69-.73-.89-.3-1.71-.7-2.46-1.2-.75-.5-1.34-1.15-1.8-1.97-.46-.81-.69-1.81-.69-3.04,0-1.4.41-2.69,1.2-3.84.79-1.15,1.96-2.08,3.53-2.77s3.52-1.04,5.86-1.04c1.53,0,3.04.16,4.54.49,1.49.32,2.83.82,4.02,1.5l-2.3,5.55c-1.13-.57-2.21-.98-3.26-1.27-1.04-.28-2.07-.42-3.06-.42-.74,0-1.32.06-1.76.2-.43.13-.73.3-.92.52-.19.22-.28.45-.28.71,0,.38.23.69.68.92.46.23,1.04.42,1.81.57.75.15,1.57.32,2.46.49.9.17,1.79.41,2.68.71.89.3,1.7.7,2.45,1.2.74.5,1.34,1.15,1.8,1.95M229.65,93.28c.85,1.29,1.27,2.81,1.27,4.56s-.42,3.26-1.27,4.54c-.84,1.28-2.04,2.27-3.58,2.97-1.55.71-3.39,1.06-5.5,1.06h-3.28v5.58h-7.65v-22.72h10.93c2.12,0,3.96.35,5.5,1.04s2.74,1.68,3.58,2.97M223.19,97.83c0-.82-.25-1.47-.76-1.94-.5-.48-1.29-.72-2.35-.72h-2.79v5.32h2.79c1.06,0,1.85-.24,2.35-.72.51-.47.76-1.12.76-1.95M258.45,89.26l9.91,22.72h-7.9l-1.52-3.96h-8.63l-1.52,3.96h-7.79l9.92-22.72h7.53ZM256.82,102.5l-2.2-5.72-2.2,5.72h4.4ZM449.5,89.26v5.94h6.65v16.78h7.66v-16.78h6.65v-5.94h-20.95ZM434.33,104.99l4.76,6.99h-8.17l-3.85-5.71h-2.09v5.71h-7.65v-22.72h10.92c2.12,0,3.96.35,5.51,1.04,1.55.69,2.74,1.68,3.58,2.97.85,1.29,1.26,2.81,1.26,4.56s-.41,3.26-1.26,4.52c-.73,1.11-1.74,1.99-3.01,2.64M430.88,97.83c0-.82-.25-1.47-.76-1.94-.5-.48-1.29-.72-2.35-.72h-2.79v5.32h2.79c1.06,0,1.85-.24,2.35-.72.51-.47.76-1.12.76-1.95M403.85,95.87c.64,1.44.96,3.02.96,4.75s-.32,3.29-.96,4.74c-.64,1.45-1.53,2.71-2.68,3.78-1.14,1.07-2.49,1.9-4.05,2.48-1.55.59-3.26.88-5.12.88s-3.55-.29-5.11-.88c-1.57-.59-2.93-1.42-4.07-2.48-1.16-1.07-2.05-2.34-2.68-3.78-.64-1.45-.96-3.03-.96-4.74s.32-3.31.96-4.75c.63-1.44,1.52-2.69,2.68-3.77,1.14-1.06,2.5-1.9,4.07-2.48,1.56-.59,3.27-.88,5.11-.88s3.56.29,5.12.88c1.56.59,2.91,1.42,4.05,2.48,1.15,1.07,2.04,2.33,2.68,3.77M397.08,100.62c0-.89-.12-1.68-.38-2.38s-.63-1.3-1.09-1.78c-.46-.49-1.01-.86-1.62-1.12-.62-.26-1.29-.39-1.99-.39s-1.38.13-2,.39c-.61.26-1.15.64-1.62,1.12-.46.48-.82,1.08-1.08,1.78s-.39,1.5-.39,2.38.13,1.69.39,2.39c.26.71.62,1.3,1.08,1.79.46.48,1.01.85,1.62,1.11.62.26,1.28.39,2,.39s1.37-.13,1.99-.39c.61-.26,1.16-.63,1.62-1.11.46-.49.83-1.08,1.09-1.79.26-.7.38-1.5.38-2.39M366.28,93.28c.84,1.29,1.26,2.81,1.26,4.56s-.42,3.26-1.26,4.54c-.85,1.28-2.04,2.27-3.59,2.97-1.55.71-3.38,1.06-5.49,1.06h-3.28v5.58h-7.66v-22.72h10.94c2.12,0,3.95.35,5.49,1.04,1.55.69,2.74,1.68,3.59,2.97M359.81,97.83c0-.82-.25-1.47-.76-1.94-.51-.48-1.29-.72-2.35-.72h-2.79v5.32h2.79c1.06,0,1.84-.24,2.35-.72.5-.47.76-1.12.76-1.95M325.37,89.26l9.92,22.72h-7.91l-1.52-3.96h-8.63l-1.52,3.96h-7.78l9.92-22.72h7.53ZM323.74,102.5l-2.2-5.72-2.2,5.72h4.4Z"/>
        <path class="cls-5" d="M434.98,140.77c-.19,0-.26-.02-.21-.05.09-.07.19-.07.29,0,.09,0,.13,0,.11.02-.02.02-.08.02-.18.02M436.33,140.93h-.78c-.15.04-.02.06.35.06.43,0,.57-.02.43-.06M414.57,141.73c.16-.09.2-.16.11-.24-.05.03-.1.05-.14.05-.05.04-.1.06-.15.06s-.09.02-.14.05c-.2.14-.24.2-.15.2.15,0,.3-.04.46-.12M411.97,154.14c-.09.04-.15.07-.17.1-.03.03-.03.05.03.05.05,0,.14-.05.28-.15.19-.13.24-.2.14-.2l-.29.2ZM411.52,143.15s.03.02.03.05c.33-.13.58-.24.75-.33.16-.08.39-.21.68-.38-.15,0-.21-.02-.21-.06l-1.28.67s0,.05.03.05M427.31,143.72c-.42.17-.85.34-1.28.51-.43.17-.69.28-.78.31-.29.18-.34.24-.18.19.16-.06.6-.19,1.31-.39.33-.14.7-.32,1.11-.55.4-.22.67-.35.81-.38.37-.14.59-.24.64-.31.05-.03-.11.02-.46.15-.36.14-.75.29-1.17.46M438.88,141.81l-.21.26c.24-.07.37-.13.39-.18.03-.06-.04-.08-.18-.08M410.27,151.51c.19-.14.19-.2,0-.2-.05,0-.16.07-.36.2-.19.14-.21.2-.06.2.09,0,.24-.07.42-.2M438.42,142.09c.08-.02.16-.02.25-.02-.19.1-.45.17-.78.2l-.5.31c-1.09.49-2.65,1.16-4.69,2.02-2.03.86-4.26,1.87-6.67,3.04-.15.03.04.41.57,1.14.76,1.03,1.24,1.96,1.45,2.78.22.83.2,1.81-.03,2.95-.05.31-.14.64-.29,1.01-.14.36-.31.71-.5,1.06-.19.34-.4.67-.64.97-.24.31-.45.54-.64.68-.33.31-.5.51-.5.62,0,.07-.15.21-.42.44-.28.22-.62.47-.99.75-.38.28-.81.56-1.28.85-.48.29-.88.52-1.21.69-.52.28-1.12.55-1.81.81-.69.25-1.13.38-1.32.38-.24,0-.69.12-1.35.37-.51.17-.93.29-1.24.33-.31.05-.94.07-1.88.07-1.33.07-2.37.04-3.12-.1-.57-.07-1.15-.21-1.74-.42-.59-.2-1.14-.44-1.64-.7-.5-.25-.92-.52-1.28-.8-.35-.28-.58-.54-.67-.77l-.28-.62c-.1-.11-.17-.37-.22-.78-.04-.41-.06-.84-.06-1.29v-1.24c0-.37.05-.6.14-.67l.21-.62c0-.28.1-.59.29-.93.05-.14.17-.32.36-.52.19-.2.39-.41.6-.62.21-.2.41-.39.57-.54.16-.16.27-.23.32-.23s-.05.12-.28.36c-.24.24-.31.4-.21.46.1.07.26-.02.5-.25.05-.04.11-.07.18-.11.07-.03.13-.07.18-.11l.14-.1c.1,0,.28-.14.57-.41.29-.21.47-.29.57-.26.1.11.4-.03.92-.41.52-.37.71-.56.57-.56-.1-.07.05-.24.42-.52.38-.28.76-.5,1.14-.67.14-.04.37-.13.71-.29s.67-.32,1.03-.49c.35-.18.67-.33.95-.47.29-.13.46-.22.5-.25.05-.04.15-.07.28-.11.15-.03.26-.07.36-.1.15-.03.32-.08.53-.16.22-.06.37-.14.46-.2.14-.07.28-.13.39-.18.12-.06.23-.08.32-.08.1-.03.38-.13.85-.29.47-.15.88-.32,1.2-.49l.64-.26c.81-.24,1.25-.38,1.35-.44.09-.05.06-.12-.07-.23-.15-.07-.29-.09-.42-.06-.05.11-.41.24-1.07.41-.43.17-.94.37-1.53.57-.6.2-1.57.59-2.95,1.14-.76.27-1.46.56-2.13.87-.66.32-1.16.57-1.49.77-1.09.66-1.8,1.06-2.13,1.22-.32.15-.16,0,.5-.5.81-.54,1.85-1.1,3.12-1.65,1.28-.54,2.99-1.22,5.11-2.01.67-.28,1.26-.52,1.78-.72.52-.2.78-.32.78-.36,0-.04-.11-.15-.33-.34-.21-.19-.45-.41-.74-.69-.24-.24-.46-.45-.68-.62-.21-.18-.32-.28-.32-.32,0-.03-.06-.13-.18-.31-.12-.17-.3-.37-.54-.62-1.18-1.1-1.83-2.28-1.95-3.53-.11-1.26.14-2.5.75-3.72.62-1.22,1.54-2.39,2.77-3.48,1.23-1.11,2.6-2.05,4.12-2.84l2.06-1.14c.24-.06.46-.16.64-.29.19-.12.32-.21.42-.29.19-.14.34-.2.46-.2.11,0,.43.05.96.15.37.06.76.19,1.17.36.4.18.6.31.6.41,0,.06.14.17.42.31.1.07.21.17.36.31.14.14.26.28.35.41.15.2.21.36.21.46s-.09.32-.28.67c-.1.32-.23.55-.39.72-.17.18-.42.37-.75.57-1.09.69-1.94,1.16-2.55,1.39-.14.07-.32.17-.54.29-.21.12-.41.25-.6.39l-2.27,1.55c-.47.31-.86.59-1.17.83-.31.24-.45.37-.45.41,0,.13-.1.24-.29.31-.05.06-.15.19-.32.38-.16.19-.34.42-.53.7-.29.41-.46.9-.53,1.44-.07.55-.15,1.09-.25,1.6-.1.79-.06,1.37.11,1.76.16.37.55.83,1.17,1.34.58.59.94.91,1.14.98.09.07.28.04.56-.1.29-.17.47-.23.57-.15,0,.06-.13.15-.42.25-.33.11-.51.21-.54.32-.02.1.09.15.32.15s.35-.06.35-.15c0-.07.07-.09.21-.06.19,0,.36-.05.5-.15.14-.11.25-.15.35-.15.05,0,.2-.04.46-.13.26-.08.55-.18.89-.28.66-.24,1.68-.6,3.05-1.08,1.37-.48,2.89-1,4.55-1.55l2.12-.72c-.14.11-.33.24-.57.41s-.64.33-1.2.46c-.33.06-.72.18-1.17.33s-.89.3-1.31.44c-.43.14-.82.27-1.17.39-.36.12-.56.19-.61.23-.09.03-.2.07-.32.11-.11.03-.22.05-.32.05-.14,0-.42.07-.85.2-.42.15-.66.24-.71.32,0,.06-.1.1-.29.1-.14,0-.47.14-.99.41-.52.28-.9.48-1.14.62l-.92.31c-.52.14-.73.23-.64.26.09.07.32.1.67.1s.59-.03.67-.1c.05-.07.17-.11.36-.11.19.07.31.06.36-.05,0-.07.14-.1.42-.1.19,0,.29-.03.29-.1,0-.07.14-.14.42-.21l.99-.72c.19-.03.54-.14,1.03-.31.5-.17,1.03-.33,1.59-.49.57-.16,1.09-.3,1.56-.44.47-.14.76-.2.86-.2.19,0,.28-.06.28-.15,0-.07.09-.07.28,0,.2,0,.29-.03.29-.11-.1.07-.15.07-.15,0,0-.03.25-.13.75-.29.5-.15.86-.32,1.1-.49l1.07-.67c.24-.17.5-.25.81-.25s.55-.02.75-.06c.32-.03.5.03.5.21,0,.06-.02.13-.04.18-.02.05-.03.11-.03.18h-.21l-.57.31h.07c.09,0,.17,0,.24-.02M421.56,132.25c.24,0,.36-.06.36-.2.05-.11.16-.15.35-.15.1,0,.22-.06.36-.19.15-.11.16-.21.08-.28-.06.03-.13.07-.22.1-.1.04-.26.14-.5.31-.48.28-.62.41-.43.41M420.14,133.29s.21-.06.64-.31c.33-.31.5-.48.5-.51-.1-.07-.31.02-.64.29-.33.25-.5.43-.5.54M420.7,135.35c.05,0,.12.03.22.11l.42-.47,1.07-.87c.09-.14.19-.24.29-.31.04-.07.11-.12.2-.16.1-.03.21-.15.36-.36.14-.17.26-.26.35-.26.1,0,.15-.02.18-.07.03-.06.06-.1.11-.13.05-.06.11-.12.21-.15s.12-.06.07-.11l.29-.1.06-.06h.15s.07-.02.07-.05c-.05-.03-.03-.06.07-.06.04,0,.06-.03.06-.1h-.06c-.1.03-.14.04-.11.02.02-.02.07-.04.17-.07,0-.07.07-.11.21-.11.2,0,.24-.02.15-.05h.14l.29-.21c.19-.14.33-.2.43-.2-.1-.07-.1-.12,0-.16.09-.03.21-.07.35-.1,0-.07.05-.13.15-.18.09-.06.09-.08,0-.08-.33.14-.59.26-.77.36-.2.1-.44.24-.72.41,0,.07-.11.15-.32.24-.21.09-.34.13-.39.13l.1-.05c.1-.07.19-.12.29-.15,0-.07.04-.14.14-.21l.15-.11.06-.05c.1-.06.15-.12.15-.15.09-.03.2-.07.32-.13.12-.05.23-.11.31-.18.15-.07.29-.15.44-.26-.05,0-.2.07-.44.21-.23.14-.37.2-.42.2l-.21.15c-.1.06-.21.11-.36.11-.32,0-.24-.11.29-.31.1-.03.27-.13.53-.29.26-.15.4-.25.4-.28,0-.03.03-.05.14-.05h.08l.06-.06s.09,0,.11-.02c.02-.02.08-.02.17-.02.29-.14.32-.21.08-.21-.05,0-.19.06-.42.19-.25.12-.51.25-.82.41-.31.15-.59.32-.85.47-.26.15-.44.24-.54.28-.1.07-.19.14-.29.21-.09.06-.19.12-.29.15-.04.03-.08.05-.1.05-.03,0-.06.01-.11.06-.06.03-.06.06-.06.1.04.07,0,.12-.15.15-.14.04-.24.06-.28.06-.05.03-.09.08-.14.16-.05.06-.11.12-.18.15-.07.03-.15.08-.25.15-.04.06-.09.12-.14.15-.05.03-.1.08-.14.16-.05.06-.1.12-.15.15,0,.03-.02.06-.07.1h-.06v-.05s-.02-.06-.04-.07c-.02-.02-.03-.05-.03-.08v-.11s-.02-.04-.04-.02c-.02.02-.03.05-.03.08.05.03.02.06-.07.1-.09.03-.19.05-.28.05v.1c.04.07.09.1.14.1s.05-.03,0-.1l.07-.05.14-.05.08.05v.05c0,.07-.15.25-.42.54-.28.29-.48.44-.57.44h-.15c0,.11-.02.19-.07.26,0,.2.14.2.42,0v-.05c0,.1.08.11.22.05,0-.07.03-.13.07-.18.04-.06.07-.1.07-.13l-.07-.11.07-.05c.09,0,.14-.04.14-.11l.07-.05c.09,0,0,.2-.29.62-.19.17-.32.28-.39.31-.07.03-.15.02-.25-.06-.14-.03-.17-.01-.07.06.09.14.04.2-.15.2-.05.07-.08.11-.11.11h.11c.1-.03.13-.03.11,0-.02.03-.11.08-.24.15-.05,0-.07.04-.07.13,0,.08-.05.16-.14.23-.1.14-.15.24-.15.31v.1c0,.07-.07.17-.21.31l-.07.26.57-.52c.1-.13.21-.25.36-.36l.21-.15.06-.05v-.41h-.03,0ZM406.94,155.75c0-.1-.02-.15-.07-.15-.14.07-.21.14-.21.21,0,.24.1.22.29-.06M408.43,154.05c.15,0,.36-.11.64-.31.24-.24.4-.36.5-.36.04,0,.24-.11.56-.34.33-.22.72-.5,1.14-.85.47-.34.88-.63,1.21-.85.33-.23.54-.36.64-.39.24-.07.45-.14.64-.2.19-.07.28-.12.28-.15,0-.03.11-.11.33-.21.21-.1.45-.24.74-.41.29-.14.56-.27.81-.39.26-.12.45-.21.54-.28.23-.17.54-.33.91-.46.38-.14.57-.17.57-.11,0,.07.12.02.36-.15.29-.14.47-.2.57-.2.09,0,.24-.04.42-.13.19-.08.4-.18.64-.29.24-.11.43-.19.6-.26.16-.06.25-.08.25-.05.05.06.24-.02.57-.26.24-.17.52-.26.85-.26.24-.07.32-.13.29-.2-.1-.14-.23-.21-.39-.23-.17-.02-.3,0-.39.07-.1.07-.28.15-.54.24-.26.08-.55.18-.89.29-.37.1-.7.19-.96.28-.26.08-.43.16-.53.23-.15.11-.28.15-.42.15-.05,0-.2.05-.46.15s-.58.24-.96.41c-.19.07-.37.14-.53.2-.17.07-.3.14-.39.21-.15.06-.26.11-.36.15-.05,0-.2.06-.46.18-.26.12-.55.27-.89.44-.32.17-.67.35-1.02.54-.36.19-.63.34-.81.45-.52.3-1.06.66-1.6,1.05-.55.4-1.02.77-1.42,1.12-.41.34-.72.62-.93.85-.21.22-.24.33-.11.33M409.49,161.64s-.33-.18-.99-.41c-.76-.28-1.18-.41-1.28-.41-.1.07,0,.16.29.29.28.12.62.23.99.33.67.17.99.24.99.21M415.38,161.17c0-.1-.05-.15-.14-.15-.15,0-.22.05-.22.15,0,.07.07.11.22.11.09,0,.14-.03.14-.11M416.46,161.27c0-.11-.1-.12-.29-.05l-.29.1s.1.06.29.06.29-.04.29-.1M416.46,160.81l.42-.2s.02.03.07,0c0-.04-.05-.06-.14-.06-.1,0-.3.06-.6.19-.31.11-.46.19-.46.23,0,.14.24.09.71-.15M417.08,161.02c0-.07-.06-.09-.21-.06-.19.07-.29.14-.29.2,0,.07.1.07.29,0,.15,0,.21-.05.21-.15M417.94,160.65c0-.11-.05-.12-.14-.05-.05.03-.1.05-.15.05-.04,0-.07.02-.07.05,0,.03.07.06.21.06.09,0,.14-.04.14-.1M417.94,160.19c.43-.14.73-.29.93-.46.19-.14.32-.21.42-.21s.21-.1.36-.31c.19-.2.35-.31.5-.31.19,0,.24-.03.14-.1-.1-.04-.02-.14.21-.31.15-.14.2-.16.15-.06-.05.14-.02.19.06.16.1-.07.15-.17.15-.31s.07-.19.21-.15c.1.07.19,0,.29-.2,0-.17.07-.26.21-.26s.15-.05,0-.15c-.09-.14-.12-.23-.08-.26.1-.06.05-.06-.14,0-.1.03-.19.1-.29.18-.1.09-.19.16-.28.24-.19.24-.47.47-.85.7-.38.22-.67.32-.85.28-.19-.06-.29-.05-.29.06,0,.07-.19.14-.57.2-.47,0-.87.11-1.2.31-.29.17-.59.29-.92.37-.15.03-.38.11-.68.2-.31.11-.65.23-1.03.37-1.56.51-3.2.63-4.9.36-.29-.03-.53-.06-.75-.1-.21-.03-.34-.05-.39-.05-.04,0-.11-.02-.21-.05l-.42-.15c-.33-.14-.54-.22-.6-.24-.07-.02-.03.04.11.18.1.14.11.21.06.21-.19,0-.12.08.18.25.31.17.66.31,1.03.41.24.07.46.13.67.18.21.06.37.1.46.13,1.18.38,2.67.28,4.47-.31.95-.28,1.62-.49,2.03-.64.4-.16.79-.36,1.17-.6.42-.24.68-.33.78-.26.09.03.06.13-.11.29-.16.15-.32.27-.46.33-.15,0-.21.06-.21.15,0,.11.21.09.63-.05M421.71,157.04c.14,0,.21-.03.21-.1,0-.14-.07-.16-.21-.05-.1,0-.15.03-.15.11,0,.03.05.05.15.05M418.44,160.39c0-.1-.05-.12-.14-.05l-.15.11c0,.06.05.1.15.1.09,0,.14-.05.14-.15M422.41,157.53c-.15.09-.52.41-1.14.96-.24.2-.53.42-.89.67-.35.24-.65.43-.89.57-.57.31-.85.51-.85.62,0,.06.12.02.36-.15.29-.21.47-.31.58-.31.04,0,.19-.09.46-.26.25-.17.55-.37.85-.62.31-.24.6-.48.86-.72s.45-.41.53-.51c.24-.24.29-.32.15-.24M424.47,150.04c0-.32-.12-.67-.36-1.06-.19-.37-.4-.55-.64-.51-.1,0-.32.06-.67.18-.36.12-.71.24-1.06.36-.36.12-.68.24-.96.37-.29.11-.42.19-.42.23s-.15.09-.42.15c-.24.07-.41.18-.5.31,0,.07-.08.15-.24.26-.17.1-.37.19-.6.26-.2.06-.44.17-.75.31-.31.14-.61.29-.92.44-.31.15-.59.3-.81.44-.25.14-.38.22-.43.25-.1.07-.16.07-.21,0-.04-.03.1-.13.42-.31.38-.17.5-.27.36-.31-.14-.06-.33-.02-.57.15l-.77.46c-.1.07-.32.21-.68.41-.35.21-.74.46-1.17.75-.42.29-.85.58-1.27.85-.43.28-.74.48-.93.62-.15.1-.31.25-.5.44-.19.19-.37.36-.54.54-.16.17-.31.34-.42.49-.12.15-.18.25-.18.28,0,.03-.03.11-.07.23-.04.12-.11.25-.21.39-.19.28-.28.48-.28.62,0,.11-.14.3-.4.59-.25.29-.46.47-.6.55,0,.03-.03.06-.07.1-.09.07-.14.14-.14.21-.05.1,0,.19.11.25.12.07.41.19.89.36.9.28,1.66.43,2.27.46.62.03,1.47-.07,2.55-.31.33-.07.74-.17,1.21-.31.47-.14.9-.28,1.28-.41.32-.14.62-.26.89-.36.26-.11.44-.16.53-.16.1,0,.43-.14.99-.43.57-.29,1-.55,1.28-.75.38-.25.85-.66,1.43-1.25.57-.59,1.04-1.08,1.41-1.5.86-1.1,1.48-2.2,1.85-3.3.24-.59.36-1.04.36-1.37M434.77,143.04c-.19,0-.31.02-.36.06-.05,0-.05,0,0,.02.05.01.12.02.21.02.29,0,.33-.03.15-.1M436.96,142.48c-.24.1-.35.17-.35.2,0,.03.11-.03.35-.2M414.89,152.24c-.24.06-.36.15-.36.26,0,.13.15.1.43-.11.19-.14.27-.23.24-.26-.02-.03-.13,0-.31.11M411.33,143.15l-.07.05v.02l.23-.11c-.05,0-.1.02-.15.05M263.55,91c.29-.41.58-.84.85-1.28.32-.53.61-1.01.85-1.45.11-.2.2-.37.27-.5-.07.19-.15.37-.23.56-.09.22-.16.44-.22.66-.06.22-.03.29.09.2.18-.17.47-.46.89-.85.42-.39.85-.85,1.33-1.38.36-.43.83-.99,1.42-1.64.59-.65,1.18-1.27,1.77-1.84.11-.11.21-.2.32-.31-.02.02-.03.03-.05.05-1.19,1.01-2.21,1.86-3.07,2.56-.85.7-1.37,1.05-1.55,1.05-.18.09.07-.24.75-.98.68-.74,1.6-1.67,2.75-2.76,1.16-1.1,2.44-2.29,3.86-3.56,1.42-1.27,2.75-2.46,3.99-3.55,1.25-1.1,2.31-2,3.2-2.7.88-.7,1.38-1.05,1.5-1.05,0-.18.15-.35.44-.53.36-.17.54-.3.54-.39.18-.27.65-.53,1.42-.79.36-.18.67-.35.94-.53.26-.18.42-.35.49-.53.11-.17.33-.26.62-.26.36,0,.59-.09.71-.26.18-.35.67-.55,1.46-.59.8-.04,1.46.11,1.99.46.3.18.61.31.94.4.33.09.58.13.76.13l.97.53c.06.26.2.39.44.39.11,0,.33.11.62.33.3.22.63.51.98.86.36.35.71.7,1.07,1.05.35.35.62.66.8.92.24.27.51.72.8,1.38.29.66.56,1.34.8,2.04s.45,1.27.63,1.71c.17.44.29.57.35.39.12-.26.23.02.31.85.09.84.16,1.86.22,3.09,0,1.06-.1,2.26-.3,3.62-.07.42-.14.83-.22,1.23-.2-.18-.43-.35-.68-.5-.75-.42-1.54-.78-2.37-1.1,0-.03.02-.06.02-.1.12-.44.1-.63-.04-.59-.11.04-.27.21-.47.53-.73-.25-1.49-.48-2.29-.65-.03,0-.07-.02-.11-.03.32-.71.59-1.38.78-2.02.11-.53.24-1.16.36-1.91.11-.74.2-1.38.26-1.9.06-.88.07-1.4.05-1.58-.03-.18-.19-.26-.49-.26-.12,0-.31.04-.58.13-.27.09-.52.17-.76.26-.24.09-.62.2-1.15.33-.54.13-1.04.24-1.51.32-1.12.18-1.74.4-1.86.66,0,.26-.12.39-.35.39-.18,0-.27.09-.27.26s-.3.45-.89.8c-.3.08-.72.29-1.29.59-.56.31-1.11.64-1.64.99-1.18.88-1.92,1.32-2.21,1.32-.24,0-.36.09-.36.27,0,.08-.15.26-.45.52-.29.26-.65.57-1.06.92-1.95,1.58-3.58,2.99-4.88,4.21-1.3,1.23-2.28,2.23-2.93,3.03-.24.35-.53.61-.89.79-.24,0-.41.22-.53.65-.12.27-.24.4-.36.4-.11,0-.41.26-.89.79-.47.53-.8.97-.97,1.31-.11.09-.24.23-.35.4-.18.26-.45.57-.8.92l-1.02,1.19-1.23-2.81c.18-.13.36-.33.56-.62.35-.52.47-.79.35-.79-.18,0-.26.09-.26.27s-.24.44-.72.79c-.02.01-.04.03-.06.05l-.2-.46c.11-.13.21-.25.32-.38.5-.62.96-1.14,1.37-1.58.35-.44.76-.92,1.24-1.45.47-.53.86-.97,1.15-1.32.47-.61.89-1.11,1.25-1.51.35-.39.82-.8,1.42-1.24.18-.18.4-.4.67-.66.26-.27.49-.48.67-.66.17-.26.44-.55.8-.85.35-.31.68-.6.97-.86,2.25-1.76,3.98-3.16,5.19-4.21,1.21-1.06,1.82-1.67,1.82-1.85,0-.43.06-.39.18.14.17.26.26.3.26.13,0-.27.09-.4.27-.4.06,0,.31-.16.76-.46.44-.31.93-.68,1.46-1.12.59-.44,1.18-.81,1.77-1.11.59-.31,1.06-.5,1.42-.59.29-.09.65-.22,1.06-.4.42-.17.77-.34,1.07-.52l1.07-.53-.81-.26c-.53-.18-.85-.18-.98,0,0,.09.12.13.36.13.24.09.24.22,0,.4-.36.17-.65.26-.88.26-.24,0-.24-.09,0-.26.29-.18.29-.31,0-.4-.24,0-.66.18-1.25.53-.59.35-1,.52-1.24.52s-.36.09-.36.26c0,.27-.09.4-.26.4-.3,0-.83.22-1.6.66-.29.18-.58.35-.84.53-.27.17-.46.26-.58.26-.12,0-.39.22-.8.66-.18.17-.46.41-.85.72-.38.31-.78.6-1.2.86-.36.35-.68.63-.98.85-.29.22-.44.37-.44.46l-2.31,1.98c-1.18.97-2.3,1.9-3.33,2.82-1.03.93-1.61,1.47-1.72,1.64l-1.95,2.24c-.54.53-1.02,1.03-1.46,1.51-.45.49-.72.81-.85.99-.17.36-.44.62-.8.8-.24.17-.35.35-.35.52s-.12.35-.36.53c-.12,0-.27.11-.44.33-.13.16-.26.3-.38.43l-1.5-3.43ZM282.23,73.67h.49l-.26-.14s-.1.05-.23.14M280.91,74.71c.56-.17.84-.38.84-.64v-.02c-.15.12-.33.26-.54.42-.1.07-.2.16-.31.24M276.97,80.38c.18,0,.35-.13.53-.4.24-.17.27-.26.09-.26-.11,0-.29.09-.53.26-.17.27-.21.4-.09.4M273.06,83.53c0,.09.09.13.27.13.11,0,.18-.08.18-.26,0-.26-.06-.31-.18-.13-.06,0-.12.04-.18.13l-.09.13ZM272,84.32c0,.26.09.39.27.39.12,0,.18-.13.18-.39,0-.17-.06-.26-.18-.26-.18,0-.27.09-.27.26M271.38,85.37c.12,0,.24-.08.36-.26.06-.26.02-.4-.09-.4-.18,0-.3.14-.36.4-.11.18-.09.26.09.26M268.54,87.74c0,.27.09.4.27.4s.27-.13.27-.4c0-.17-.06-.26-.18-.26-.06-.09-.18,0-.36.26M411.26,143.22l-.06.04s.05-.02.06-.04M313.72,148.88c-.1,0-.14.04-.14.11-.1.11-.05.15.14.15.1,0,.15-.03.15-.1,0-.1-.05-.16-.15-.16M381.66,145.79s.02.05.07.05v-.05h-.07ZM387.63,142.48c-.1.13-.23.28-.39.44-.16.15-.29.26-.39.33-.1.06-.16.1-.21.1-.38.28-.67.57-.85.88-.33.28-.89.73-1.67,1.37-.78.64-1.55,1.25-2.3,1.84-.43.31-.64.48-.64.51,0,.07-.12.2-.39.39-.25.19-.58.41-.96.67-.38.26-.78.53-1.21.8-.42.28-.8.5-1.13.67-.38.24-.8.55-1.29.9-.47.36-.71.58-.71.64,0,.14-.19.24-.57.31-.47.14-.92.32-1.34.52-.15.06-.43.16-.85.28-.42.12-.88.23-1.35.33-.47.11-.91.19-1.31.26-.41.07-.63.11-.67.11-.1,0-.21-.02-.36-.06-.29-.06-.52-.12-.71-.15-.33-.07-.61-.12-.85-.16-.24-.03-.38-.09-.42-.15-.19-.06-.33-.11-.42-.11-.2,0-.6-.16-1.25-.49-.64-.32-1.17-.64-1.6-.95-.43-.31-.82-.72-1.17-1.21-.36-.5-.65-1.02-.89-1.58-.24-.59-.41-1.3-.5-2.14-.1-.85-.1-1.51,0-1.99.09-.49.24-.99.46-1.51.21-.51.36-.81.46-.87.1-.07.15-.17.15-.32,0-.1.08-.28.24-.54s.36-.56.57-.9c.21-.34.45-.68.71-1.01s.5-.61.75-.85c.24-.27.6-.65,1.1-1.13.5-.48,1.02-.98,1.56-1.47.54-.5,1.06-.96,1.56-1.39.5-.43.89-.75,1.17-.96.76-.59,1.51-1.08,2.27-1.5.76-.41,1.61-.76,2.56-1.03,1.56-.51,3.24-.46,5.04.15,1.19.38,1.73.95,1.64,1.71,0,.34.07.53.21.57.1,0,.16.11.21.33.05.22.07.49.07.8s-.02.62-.07.93c-.05.31-.11.57-.21.78-.24.48-.47.9-.71,1.24-.24.34-.47.6-.71.77l-1.21.99c-.52.45-1.08.74-1.7.87-.57.18-.9.26-.99.26v-.11c0-.06,0-.11-.03-.15-.02-.03-.04-.08-.04-.15,0-.1.05-.16.15-.16.24-.06.45-.24.63-.54.19-.29.29-.58.29-.85,0-.2-.14-.13-.42.24-.29.36-.55.71-.78,1.06l-.15-.26c.1-.2.19-.39.28-.54.1-.16.12-.2.08-.12-.19.34-.34.51-.42.51v.05s0,.06.03.06c.03,0,.03.02.03.05-.09.25-.19.46-.29.64-.09.19-.11.25-.06.18.14-.1.3-.29.5-.56l.14.26c-.09.07-.09.11,0,.15,0,.07.03.12.08.15-.1.24-.32.35-.68.32-.35-.03-.58-.14-.67-.32-.05-.06-.16-.06-.35,0-.2.14-.25.15-.18.03.07-.12.29-.39.67-.81.42-.48.64-.79.64-.93,0-.11.05-.16.15-.16.09,0,.19-.14.28-.41l.5-.88c.04-.1.12-.28.25-.54.12-.26.24-.54.36-.83.11-.29.21-.56.28-.8.06-.24.11-.41.11-.52,0-.06-.11-.06-.32.03-.22.08-.5.22-.85.41-.36.19-.76.42-1.21.72-.45.29-.92.61-1.39.96-1.28.93-1.91,1.44-1.91,1.55,0,.06-.21.28-.64.62-.14.11-.37.31-.67.62-.3.31-.61.63-.92.96-.31.32-.58.62-.81.9-.25.27-.36.43-.36.46,0,.14-.12.29-.36.46-.19.2-.28.34-.28.42,0,.03-.07.17-.22.41-.14.24-.34.52-.56.83-1.66,2.55-2.13,4.6-1.42,6.15.19.34.37.58.53.7.17.12.44.18.82.18.32,0,.79-.08,1.38-.24.59-.15,1.07-.32,1.46-.49.42-.24.71-.36.85-.36s.21-.06.21-.15c0-.07.06-.11.21-.11.04,0,.25-.09.6-.26.36-.17.76-.37,1.2-.62.45-.24.9-.49,1.35-.75.45-.26.79-.47,1.03-.64.24-.17.45-.31.64-.41s.33-.17.42-.2c.24-.11.36-.19.36-.26,0-.1.19-.28.57-.51.38-.24.61-.37.71-.37.19.07.24.05.15-.05-.1-.14-.02-.24.21-.31.14-.11.29-.16.42-.16.05.04.12.11.21.24.1.12.15.15.15.08l-.22-.47s.14.02.25.15c.11.15.2.2.25.16.32,0,.5-.14.5-.42v-.06l.35-.2s-.06.07-.06.11c0,.06.02.08.06.05.05-.03.1-.08.15-.16.14-.1.21-.19.21-.26l.42-.2c.15,0,.21-.03.21-.11.05-.03.05-.05,0-.05l.43-.26s.16-.06.35-.2c.38-.21.67-.37.85-.5.19-.11.34-.22.46-.3.11-.09.22-.18.32-.26.1-.09.24-.22.42-.39.48-.31.89-.57,1.24-.77.36-.2.72-.41,1.1-.59.38-.19.71-.32.99-.39,0,.04-.02.07-.06.1,0,.07.04.09.14.05.1-.03.19-.1.28-.2.19,0,.29.05.29.15,0,.69-.14,1.24-.42,1.65,0,.07-.05.14-.15.21M374.35,148.78c-.1-.03-.31.07-.64.31l-.57.41.64-.32c.09-.06.18-.11.24-.13.07-.02.13-.06.18-.12.05-.04.1-.09.15-.16M375.27,148.41h-.07s-.08,0-.11-.02c-.03-.02-.06-.02-.11-.02-.19,0-.24.03-.14.11.09.06.19.09.28.07.09-.02.14-.06.14-.13M376.34,148.39s-.12,0-.36.02c-.19,0-.35.06-.5.15-.09.21.1.21.57,0,.19-.1.29-.16.29-.18M378.68,146.3c-.1,0-.15.02-.15.05,0,.11-.06.16-.21.16s-.42.14-.85.41c-.43.28-.64.45-.64.52,0,.06-.19.17-.57.31-.33.14-.54.25-.63.36,0,.07.11.07.35,0,.1-.06.21-.13.36-.18.14-.05.26-.1.36-.13.14-.06.34-.18.6-.33.26-.16.5-.31.71-.46.21-.15.39-.3.53-.44.15-.14.19-.23.15-.26M381.45,146.04s-.07.07-.07.11c.05-.03.07-.06.07-.11M383.01,144.91c-.05.06-.26.24-.64.51l-.57.37h-.08c.24-.21.49-.44.75-.7s.38-.42.38-.49c0-.04-.06.01-.21.15-.14.14-.29.29-.46.46-.17.17-.41.41-.75.72.06,0,.08.02.06.04,0-.02.03-.02.05-.04.02-.03.08-.07.17-.11l.08-.05c.09.03.21.05.35.05s.28-.05.43-.15c.19-.14.31-.29.35-.44.05-.15.07-.27.07-.33M383.37,144.34c-.1.06-.15.14-.15.2,0,.07.02.1.07.08.05-.01.09-.08.14-.18.1-.1.07-.14-.06-.1M410.7,143.82c.09,0,.11-.05.06-.15-.05-.07-.11-.06-.21.05-.05.06-.1.12-.15.19,0,0,0,0,.02,0,.14-.05.24-.08.29-.08M379.88,145.11c-.09.07-.14.12-.14.15.09-.06.14-.12.14-.15M410.15,144.16s.04-.02.06-.02v.02c.08,0,.08,0,0-.02.03-.02.05-.03.07-.06.05-.06.09-.11.13-.17-.13.05-.2.12-.2.23-.06,0-.1,0-.13.02.02,0,.03,0,.06,0M416.43,142.47c.16-.32.06-.34-.32-.06.03,0,.08-.02.11-.02.17-.03.24,0,.21.09M418.65,159.16c-.09,0-.19.06-.28.2-.05.1.02.12.21.06.24-.17.26-.26.06-.26M317.07,143.1s0,.06.03.07c.03.02.04,0,.04-.02,0-.03.02-.06.06-.1l.22-.16.21-.2-.21.1c-.24.1-.36.2-.36.31M361.38,142.48c-.1.13-.23.28-.4.44-.16.15-.29.26-.38.33-.1.06-.16.1-.22.1-.38.28-.66.57-.85.88-.32.28-.89.73-1.68,1.37-.78.64-1.54,1.25-2.3,1.84-.43.31-.65.48-.65.51,0,.07-.12.2-.38.39-.26.19-.58.41-.95.67-.38.26-.78.53-1.21.8-.42.28-.81.5-1.14.67-.38.24-.8.55-1.27.9-.48.36-.72.58-.72.64,0,.14-.19.24-.58.31-.46.14-.91.32-1.34.52-.15.06-.43.16-.85.28-.42.12-.88.23-1.35.33-.47.11-.91.19-1.32.26-.39.07-.61.11-.66.11-.1,0-.21-.02-.36-.06-.28-.06-.52-.12-.71-.15-.33-.07-.61-.12-.85-.16-.24-.03-.37-.09-.42-.15-.19-.06-.33-.11-.42-.11-.2,0-.6-.16-1.26-.49-.62-.32-1.16-.64-1.58-.95-.43-.31-.82-.72-1.17-1.21-.37-.5-.65-1.02-.89-1.58-.23-.59-.4-1.3-.49-2.14-.1-.85-.1-1.51,0-1.99.03-.13.05-.25.08-.38t-.02.02c-.24.28-.57.64-.99,1.08,0,.17-.16.46-.5.86-.33.4-.73.82-1.2,1.29-.47.47-.98.94-1.49,1.4-.53.46-.98.82-1.35,1.06-.33.2-.64.42-.93.64-.28.23-.48.39-.57.5-.23.24-.43.36-.56.36-.19,0-.48.14-.85.41-.24.1-.52.22-.85.36-.33.14-.68.24-1.06.31-.67.14-1.11.21-1.32.21s-.58-.04-1.1-.1c-1.66-.2-3.17-1.04-4.54-2.48-.52-.59-.85-1.06-1-1.42-.14-.36-.17-.84-.07-1.42.04-.27.07-.5.07-.67s-.02-.26-.07-.26c-.15,0-.28.12-.43.36-.09.07-.31.21-.63.44-.34.22-.69.46-1.07.69-.85.59-1.25.94-1.2,1.08.05.14,0,.18-.15.11-.09-.03-.11-.02-.06.06.09.06.03.2-.22.41-.24.21-.42.31-.56.31s-.22.04-.22.1c0,.03-.08.11-.24.23-.17.12-.35.24-.54.37-.19.12-.38.23-.57.33-.19.11-.3.15-.35.15-.19-.06-.28-.05-.28.06-.05.03-.13.09-.25.18-.11.08-.27.16-.46.23-.29.14-.56.23-.82.26-.26.03-.64.05-1.16.05-.85.04-1.53,0-2.03-.1-.5-.11-1.07-.35-1.74-.72-.52-.28-1-.64-1.42-1.08-.43-.45-.88-1.02-1.35-1.71-.29-.45-.46-.76-.54-.93-.06-.17-.06-.5.04-.98,0-.27.05-.59.14-.95.1-.36.2-.66.29-.9l.78-2.38c.29-.85.56-1.64.84-2.37-1.11.46-2.19.91-3.26,1.34-1.22.5-2.34.97-3.34,1.4-1,.43-1.72.72-2.17.85-.52.14-1,.3-1.44.5-.45.2-.75.37-.9.5-.3.26-.52.4-.67.4-.37,0-.74.16-1.11.5-.23.19-.45.3-.67.3-.15-.06-.52.02-1.11.24-.59.24-.89.41-.89.55l1.67,2.19c.96,1.2,1.63,2.08,2,2.64.37.57.73,1.32,1.11,2.25.82,1.79,1.36,3.59,1.62,5.38.25,1.8.24,3.36-.06,4.69-.37,1.34-.74,2.53-1.11,3.59-.37,1.07-.71,1.73-1,1.99-.15.14-.34.32-.55.55-.23.23-.41.51-.57.85-.21.27-.43.56-.66.9-.22.33-.41.57-.55.7-.22.4-.69.93-1.39,1.59-.71.67-1.41,1.34-2.12,2.04-.7.7-1.37,1.3-2,1.8-.63.5-1.02.75-1.16.75-.07,0-.26.13-.56.4-.07.13-.26.31-.55.54-.29.24-.63.45-1,.65-.67.4-1.2.76-1.55,1.1-.07.13-.46.37-1.17.74-.7.37-1.5.76-2.39,1.2-.89.43-1.7.81-2.44,1.14-.75.33-1.19.5-1.34.5-.23,0-.37.1-.45.3,0,.06-.43.28-1.28.64-.85.37-1.8.75-2.84,1.15-1.03.4-2.07.78-3.11,1.15-1.04.36-1.75.58-2.12.65l-1.9.4h-.67c0-.07-.26-.12-.78-.16-.52-.03-1.11-.05-1.77-.05-3.04-.2-5.67-.91-7.9-2.14-2.22-1.24-3.93-2.88-5.11-4.94-.45-.8-.78-1.46-1.01-1.99-.22-.53-.4-1.06-.55-1.59-.15-.53-.26-1.08-.33-1.64-.07-.57-.11-1.28-.11-2.15-.07-1.32-.14-2.29-.17-2.89-.03-.6.06-1.29.28-2.09.3-.94.5-1.75.61-2.44.11-.7.46-1.42,1.06-2.15-.08-.13.11-.4.56-.8.44-.4.74-.59.89-.59l1.11-1.2c.51-.74.96-1.1,1.34-1.1.29,0,.44-.14.44-.4,0-.2.19-.4.56-.6.37-.2.55-.43.55-.7-.07-.2.17-.56.72-1.09.55-.54.99-.8,1.28-.8.22,0,.33-.07.33-.2s.22-.37.67-.7c.45-.32.94-.66,1.51-.99.55-.33,1.09-.63,1.61-.9.52-.26.84-.36,1-.29.07,0,.11-.06.11-.2,0-.06.2-.23.61-.5.41-.26.9-.58,1.5-.95.59-.36,1.23-.72,1.9-1.09.67-.37,1.22-.65,1.67-.85.59-.27.89-.43.89-.5.07-.07.45-.29,1.11-.65.67-.37,1.48-.78,2.45-1.25.96-.46,2-.99,3.11-1.55,1.11-.57,2.15-1.08,3.12-1.55.96-.46,1.8-.85,2.51-1.15.7-.3,1.09-.45,1.16-.45.22,0,.26-.06.11-.2,0-.06-.07-.15-.22-.24-.15-.11-.48-.27-1-.5-.52-.23-1.24-.56-2.16-.99-.44-.2-.96-.45-1.54-.71h0s-.1-.05-.2-.11c-.45-.2-.95-.44-1.47-.69h0c-2.21-1.03-5.83-2.69-6.01-2.83-.83-.66-1.36-1.12-1.6-1.39-1.83-1.93-3.2-4.21-4.08-6.83-.12-.44-.3-.9-.54-1.38-.24-.48-.45-.94-.63-1.38-.11-.44-.26-.94-.44-1.51-.18-.57-.29-1.07-.35-1.51l-.54-3.16c-.11-.61-.2-1.37-.26-2.3-.06-.92-.09-1.88-.09-2.89s0-1.98.03-2.9v-.11h1.51c-.04.06-.05.21-.05.44.06.36.11.44.18.27v-.37l.4,1.05c.41,1.06,1.23,1.86,2.23,2.26-.06.47-.13.98-.19,1.53-.08.79-.15,1.6-.17,2.44-.03.83-.05,1.55-.05,2.16.06,1.14.12,1.91.18,2.3.06.4.2.81.45,1.25.53.96,1.07,1.73,1.64,2.3.56.57,1.32,1.2,2.26,1.9,1.5,1.06,10.48,6.53,11.93,7.63l1.55.9,1.56.99,2,1.4,1.89,1.2,3.67-1.7c.45-.2,1.11-.48,1.99-.85.9-.36,1.81-.75,2.73-1.15.93-.4,1.8-.76,2.61-1.09s1.34-.54,1.56-.6c2.37-.93,4.6-1.77,6.67-2.54,2.04-.76,3.65-1.24,4.83-1.44.23-.1.47-.15.73-.14,1.29-.25,2.04-.35,2.26-.32.17.02-.03.11-.6.25.04,0,.08.02.11.02.41.06.76.17,1.04.31.38.14.61.2.71.2s.2.11.32.33c.02.03.03.06.05.09.06,0,.11-.02.15-.02.34-.03.33.07-.03.3.08.22.19.5.29.84l.29.88-.4.66c.17,0,.29,0,.36.06.22.2.22.29,0,.29-.14,0-.38.07-.69.21-.18.31-.26.5-.26.58,0,.11-.17.37-.5.77-.15.18-.3.41-.46.7-.17.29-.32.58-.46.86-.2.41-.42.92-.67,1.52-.26.6-.51,1.18-.75,1.73-.24.55-.44,1.04-.6,1.46-.17.43-.25.67-.25.7,0,.07-.05.23-.14.46-.1.24-.19.5-.29.77-.38,1-.66,1.9-.81,2.69-.17.8-.15,1.28.03,1.45l.17-.05c.1,0,.24-.03.43-.11.13-.03.27-.07.39-.11.11-.03.22-.05.32-.05.05,0,.19-.07.42-.2.24-.14.5-.3.78-.5.29-.19.58-.38.89-.59.31-.2.58-.39.82-.57l1.13-.87c.52-.41,1.12-.9,1.81-1.47.69-.57,1.34-1.12,1.95-1.65.61-.54,1.11-.99,1.49-1.37.38-.38.54-.57.5-.57-.1,0-.1-.04,0-.11.04-.03.15-.12.32-.26.16-.14.33-.3.54-.49.19-.19.35-.35.49-.49.15-.14.22-.23.22-.26s.08-.14.25-.31c.16-.17.36-.37.6-.62.47-.52.82-.91,1.06-1.19.24-.28.43-.54.56-.77.19-.21.32-.31.36-.31.14,0,.21-.07.21-.21,0-.06.05-.19.15-.36.09-.17.23-.34.42-.52.14-.2.29-.44.46-.69.17-.26.3-.47.39-.64.33-.63.8-1.02,1.42-1.2.29-.07.48-.03.64.1.19.21.32.28.42.21,0-.04,0-.05.03-.03.03.02.05.07.05.13,0,.14.04.11.13-.1.1-.24.32-.37.65-.37s.64.14.91.41c.15.11.27.2.4.29.11.08.22.13.32.13s.15.05.15.15c-.05.03,0,.14.14.31.24.2.25.64.04,1.29-.22.66-.54,1.28-.96,1.86-.24.28-.46.58-.68.9-.21.32-.39.59-.54.8-.09.21-.22.42-.38.65-.17.22-.32.41-.4.59-.19.28-.33.52-.44.72-.08.21-.22.57-.41,1.08-.11.21-.25.58-.46,1.11-.21.54-.44,1.09-.69,1.68-.52,1.2-.87,2.16-1.08,2.84-.21.69-.32,1.3-.32,1.81s.02.72.06.72c0,.03.08.02.25-.05.16-.07.37-.14.6-.21.23-.06.62-.24,1.14-.51s1.03-.6,1.56-.98c.56-.37,1.02-.69,1.34-.93.33-.24.62-.46.89-.67.26-.21.54-.43.82-.67.29-.24.66-.56,1.13-.98.85-.8,1.75-1.64,2.7-2.53.94-.9,1.77-1.64,2.48-2.22.33-.28.6-.54.82-.77.21-.25.43-.46.67-.68.38-.37.64-.61.75-.69.11-.09.13,0,.03.23,0,.11.02.21.03.33.03.12-.03.28-.1.46-.1.19-.31.4-.64.62-.33.22-.81.49-1.42.8-.28.28-.52.52-.71.75-.19.23-.28.39-.28.49-.06.17-.15.35-.32.52-.17.17-.32.25-.46.25-.06,0-.18.1-.39.29-.22.19-.45.41-.67.65-.24.24-.47.46-.67.64-.21.19-.32.3-.32.33,0,.18-.12.4-.36.67-.19.24-.25.36-.14.36.14,0,.21-.02.21-.05.05-.03.2-.2.5-.5.29-.28.61-.6.99-.93.37-.32.75-.65,1.1-.98.36-.32.63-.54.81-.65.19-.13.35-.25.46-.36.12-.11.16-.15.11-.15-.09-.07-.07-.11.07-.11s.24-.06.29-.2c0-.11.03-.11.14,0,.1.11.15.08.15-.05,0-.07.05-.19.14-.34.1-.15.22-.31.36-.46.14-.15.29-.29.42-.41.14-.11.26-.18.36-.18.09,0,.03.09-.22.26-.09.06-.11.12-.07.15.05.03.02.09-.07.15-.05.07-.02.08.07.02.09-.05.21-.14.35-.28.07-.11.15-.24.23-.36-.02-.03-.06-.07-.08-.11,0-.14.02-.17.07-.11.02.04.05.06.09.08,0,0,0-.02.01-.02.05-.09.11-.17.17-.26-.04,0-.04-.07,0-.2,0-.14.04-.21.14-.21.05-.03.08-.03.11,0v.04c.09-.12.18-.25.27-.37.27-.32.51-.61.75-.85.24-.27.6-.65,1.1-1.13.5-.48,1.03-.98,1.56-1.47.55-.5,1.07-.96,1.56-1.39.5-.43.89-.75,1.17-.96.76-.59,1.51-1.08,2.27-1.5.76-.41,1.61-.76,2.55-1.03,1.56-.51,3.24-.46,5.05.15,1.18.38,1.72.95,1.63,1.71,0,.34.07.53.21.57.1,0,.17.11.21.33.05.22.08.49.08.8s-.02.62-.08.93c-.04.31-.11.57-.21.78-.24.48-.47.9-.71,1.24-.24.34-.47.6-.71.77l-1.2.99c-.52.45-1.09.74-1.71.87-.57.18-.9.26-.99.26v-.11c0-.06-.02-.11-.03-.15-.02-.03-.04-.08-.04-.15,0-.1.05-.16.15-.16.24-.06.45-.24.64-.54.19-.29.29-.58.29-.85,0-.2-.14-.13-.42.24-.29.36-.55.71-.78,1.06l-.15-.26c.1-.2.19-.39.29-.54.1-.16.12-.2.07-.12-.19.34-.33.51-.42.51v.05s0,.06.03.06c.02,0,.03.02.03.05-.09.25-.19.46-.28.64-.09.19-.11.25-.07.18.14-.1.31-.29.5-.56l.14.26c-.1.07-.1.11,0,.15,0,.07.03.12.07.15-.1.24-.32.35-.67.32-.36-.03-.58-.14-.67-.32-.05-.06-.16-.06-.35,0-.2.14-.25.15-.18.03.06-.12.29-.39.67-.81.42-.48.64-.79.64-.93,0-.11.05-.16.15-.16.09,0,.19-.14.29-.41l.49-.88c.05-.1.14-.28.25-.54.12-.26.24-.54.36-.83.11-.29.21-.56.29-.8.06-.24.11-.41.11-.52,0-.06-.11-.06-.33.03-.21.08-.5.22-.85.41-.36.19-.76.42-1.21.72-.45.29-.91.61-1.38.96-1.28.93-1.91,1.44-1.91,1.55,0,.06-.21.28-.64.62-.14.11-.36.31-.68.62-.31.31-.61.63-.92.96-.31.32-.58.62-.81.9-.24.27-.36.43-.36.46,0,.14-.12.29-.36.46-.19.2-.28.34-.28.42,0,.03-.07.17-.21.41-.14.24-.32.52-.57.83-1.65,2.55-2.12,4.6-1.42,6.15.19.34.37.58.53.7.17.12.44.18.82.18.33,0,.79-.08,1.38-.24.59-.15,1.07-.32,1.46-.49.42-.24.71-.36.85-.36.15,0,.22-.06.22-.15,0-.07.07-.11.21-.11.05,0,.24-.09.6-.26.35-.17.76-.37,1.2-.62.45-.24.9-.49,1.35-.75.45-.26.79-.47,1.03-.64.23-.17.45-.31.63-.41.19-.11.34-.17.42-.2.24-.11.36-.19.36-.26,0-.1.19-.28.57-.51.38-.24.61-.37.71-.37.19.07.24.05.14-.05-.09-.14-.02-.24.22-.31.14-.11.27-.16.42-.16.05.04.11.11.21.24.1.12.15.15.15.08l-.21-.47s.12.02.24.15c.11.15.2.2.24.16.34,0,.51-.14.51-.42v-.06l.35-.2c-.05.03-.08.07-.08.11,0,.06.02.08.08.05.05-.03.1-.08.15-.16.14-.1.21-.19.21-.26l.42-.2c.15,0,.21-.03.21-.11.05-.03.05-.05,0-.05l.43-.26s.16-.06.35-.2c.38-.21.67-.37.85-.5.19-.11.34-.22.46-.3.11-.09.22-.18.32-.26.1-.09.24-.22.42-.39.47-.31.89-.57,1.25-.77.36-.2.72-.41,1.1-.59.38-.19.72-.32.99-.39,0,.04-.03.07-.06.1,0,.07.04.09.14.05.1-.03.19-.1.29-.2.19,0,.29.05.29.15,0,.69-.15,1.24-.42,1.65,0,.07-.05.14-.15.21M323.04,137.32s-.12.09-.36.36c-.24.28-.38.45-.42.52,0,.25.16.12.5-.36l.29-.52ZM321.94,137.99c.11-.04.43-.38.95-1.03.2-.24.33-.46.43-.65.09-.19.11-.3.07-.33-.09-.06-.21-.02-.35.13-.15.15-.38.5-.71,1.06-.38.59-.51.86-.39.83M255.07,116.16c-.06-.26-.09-.08-.09.53,0,.35.02.57.05.66.03.09.04.04.04-.14.12-.34.12-.7,0-1.05M281.21,147.48c-1.04.54-1.37.8-1,.8.22,0,.56-.19,1-.59.59-.53.59-.6,0-.2M279.55,146.39c-.16.2-.42.29-.78.29-.45,0-.49.1-.11.3.15.06.03.24-.33.5-.45.14-.75.2-.89.2-.15,0-.08-.06.21-.2.3-.13.34-.19.12-.19-.15,0-.45-.07-.89-.2-.22-.13-.29-.03-.22.3.07.27-.05.33-.33.2-.37-.06-.55,0-.55.2,0,.14-.11.3-.33.5-.23.2-.49.4-.78.6-.74.4-1.19.59-1.34.59-.14,0,0-.16.45-.5l.56-.5-.67.2c-.52.14-.81.27-.89.4-.24.14-.72.41-1.51.85-.77.43-1.42.74-1.94.94-1.04.53-1.78.86-2.23,1-.45.13-.74.16-.89.1-.07-.14-.12-.19-.16-.15-.03.03-.03.09.06.15.15.26.1.4-.11.4-.22.2-.26.33-.12.4.08.19.52.16,1.34-.1.59-.2.99-.41,1.23-.6.15-.13.4-.27.77-.4,1.64-.8,2.34-1.29,2.12-1.5-.16-.13,0-.13.44,0,.3.14.56.11.77-.1,0-.2.15-.3.44-.3.16,0,.08.2-.2.6-.52.46,0,.29,1.55-.5l4.45-1.99c.59-.33,1.13-.59,1.61-.8.48-.2.72-.32.72-.4,0-.26-.24-.43-.67-.5-.44-.06-.73,0-.88.2M271.98,150.87c-.15-.13-.33-.03-.58.3-.28.26-.25.33.13.2.38-.26.52-.43.45-.5M278.32,145.58c-.81.41-1.01.6-.55.6.15,0,.4-.16.77-.5l.45-.6-.67.5ZM277.31,140.3c.3.46.38.43.23-.1-.15-.2-.26-.3-.33-.3-.15.14-.11.27.11.4M276.76,139.8c.07,0,.11-.06.11-.2,0-.2-.15-.29-.44-.29-.16,0-.34-.05-.56-.16-.22-.1-.41-.25-.56-.45-.44-.34-.63-.4-.55-.2,0,.13.11.28.33.45.21.16.44.32.67.45.59.26.92.4,1,.4M250.51,159.25c0,.2.09.25.28.15.19-.1.42-.31.72-.64.36-.54.67-.8.88-.8.15,0,.41-.17.78-.5.37-.34.68-.51.89-.51s.33-.1.33-.29c0-.2.26-.24.78-.11.45.07.52.03.23-.1-.23-.13-.33-.21-.33-.24,0-.04.18-.19.56-.46.74-.53,1.36-.86,1.88-.99.52-.14.49.03-.11.5-.44.33-.41.4.11.2.52-.2,1.22-.57,2.12-1.1.96-.67,1.55-1,1.77-1,.23-.13.49-.26.78-.4.22-.13.48-.26.78-.4.29-.13.62-.3,1-.5.66-.4,1.24-.72,1.72-.95.48-.24,1.01-.5,1.61-.8.59-.29,1.31-.66,2.16-1.09.85-.43,2.01-.98,3.49-1.64,2.31-1.13,3.82-1.9,4.57-2.29.74-.4.93-.6.55-.6-.45,0-3.82,1.59-10.12,4.78l-3.45,1.8c-.07.13-.39.33-.94.6-.55.26-1.21.59-1.95.99-.75.34-1.41.67-2,.99-.59.33-.97.57-1.11.7-.31.27-.45.27-.45,0,0-.13.14-.33.45-.59.37-.13.96-.43,1.77-.9.75-.33,1.72-.84,2.95-1.5,1.22-.67,2.59-1.4,4.07-2.2.59-.34,1.45-.77,2.55-1.29,1.11-.54,2.19-1.07,3.23-1.6,1.11-.53,2.04-1.02,2.77-1.45.73-.43,1.11-.72,1.11-.85,0-.26-.07-.33-.22-.2-.24.14-.78.4-1.67.8-.9.4-1.88.86-2.95,1.39-1.08.54-2.09,1.05-3.06,1.55-.96.5-1.67.88-2.11,1.15-.6.34-1.13.61-1.61.85-.49.24-.8.35-.95.35-.22,0-.33.06-.33.2,0,.2-.41.46-1.22.79-1.55.87-2.67,1.46-3.34,1.8-.66.34-1.33.73-2,1.2l-2.21,1.5c-.3.2-.73.48-1.28.85-.56.36-1.11.75-1.63,1.15-.52.4-.96.77-1.33,1.1-.38.33-.55.53-.55.59M265.19,153.31c-.07.03-.15.02-.22-.05-.16,0-.38.05-.67.15-.3.11-.61.24-.94.4-.33.17-.64.33-.9.5-.26.16-.38.28-.38.34,0,.2-.07.24-.23.11-.21-.07-.34-.03-.34.1,0,.2-.2.34-.65.4-.22.06-.47.19-.73.35-.26.17-.52.35-.77.55-.26.2-.45.39-.56.55-.11.16-.09.24.06.24.22,0,.33-.06.33-.19s.26-.37.78-.7l.77-.3c.97-.4,1.75-.74,2.34-1.04.6-.3,1.16-.59,1.68-.85.52-.26.82-.43.9-.5.15-.13.11-.26-.11-.4-.22-.19-.33-.16-.33.11.07.13.07.21,0,.24M249.73,159.95c0,.2.11.24.32.1l.46-.2c0-.07-.15-.1-.46-.1-.2,0-.32.06-.32.2M245.61,164.83c.07.6.59.2,1.56-1.2.22-.33.36-.58.44-.74.07-.17.04-.19-.11-.06-.74.53-1.25.95-1.51,1.25-.26.29-.39.55-.39.74M258.63,186.27c-.38,0-.67.1-.9.29-.37.33-.23.37.45.11.59-.2.74-.33.45-.4M286.76,164.43c.3-.66.34-1.07.12-1.2-.23-.2-.45.06-.67.8-.3.73-.52,1.03-.67.9-.22-.07-.26,0-.11.2.15.33.15.5,0,.5-.07,0-.2.17-.39.51-.19.32-.36.76-.5,1.29-.23.86-.49,1.48-.78,1.85-.31.36-.85.98-1.67,1.84-.59.46-1.17.97-1.72,1.5-.56.53-.99.96-1.28,1.29-.52.46-1.11.97-1.72,1.5-.64.54-1.25,1.02-1.84,1.45-.59.43-1.11.8-1.55,1.09-.45.3-.71.45-.78.45-.29,0-.49.1-.55.29-.15.14-.85.5-2.11,1.1-1.26.6-3.3,1.56-6.12,2.9-1.11.53-2.32,1.01-3.61,1.44s-2.42.78-3.39,1.05c-.52.13-.96.25-1.34.35-.37.1-.59.18-.67.25-.75,0-1.34-.02-1.77-.06-.45-.03-.89-.08-1.33-.15-.45-.07-.78-.13-1-.2-.52-.06-.6-.03-.23.11.23.13.68.26,1.39.4.71.13,1.45.21,2.22.24.78.03,1.51.06,2.17.06s1.11-.07,1.34-.2c.15-.06.42-.15.84-.25.39-.1.81-.2,1.22-.29.4-.1.78-.19,1.11-.25.33-.06.49-.06.49,0,0,.13-.21.3-.66.5-.38.13-.54.22-.5.25.03.03.28.01.72-.05.23-.07.54-.17.94-.3.41-.13.76-.27,1.06-.4.59-.27,1.04-.4,1.33-.4.15.13.45.03.9-.3l1.44-.8c.59-.19.9-.36.9-.5l.67-.2c.59,0,.89-.1.89-.29.14-.27.37-.4.66-.4.15,0,.31-.06.45-.15.15-.1.29-.21.45-.35.44-.26.7-.4.77-.4.14,0,.33-.06.56-.2.22-.14.48-.27.77-.4.59-.46,1.15-.8,1.67-1,.37-.13.56-.21.56-.24,0-.04-.19-.09-.56-.15-.44,0-.52-.13-.22-.4.22-.19.4-.32.55-.35.15-.03.15.05,0,.25-.15.2-.03.27.39.2.41-.07.68-.2.84-.41.15-.13.39-.33.72-.59.33-.27.68-.53,1.05-.8.45-.27.92-.62,1.44-1.05s.99-.83,1.39-1.2c.41-.37.73-.68.95-.94.23-.27.26-.4.11-.4-.3,0-.63.23-1,.7-.45.4-.71.56-.78.5-.07-.07.19-.34.78-.8.59-.46.96-.7,1.11-.7.21,0,.51-.18.89-.55.36-.37.55-.62.55-.75,0-.2-.21-.03-.66.5-.38.33-.57.51-.61.55-.05.02.02-.12.16-.46.15-.46.49-.93,1-1.39.23-.2.43-.41.62-.65.17-.23.31-.41.39-.54,0-.27.18-.4.55-.4.22,0,.33-.11.33-.3,0-.2.15-.43.45-.7.22-.2.33-.53.33-.99,0-.33.07-.57.22-.7.22-.14.26-.27.11-.4-.15-.2-.11-.4.11-.6.15-.26.15-.46,0-.59-.15-.14-.11-.46.11-1M259.63,181.88c-1.56.53-2.67.9-3.34,1.09-.89.14-1.33.27-1.33.41,0,.13.61.06,1.83-.2,1.22-.27,2.39-.6,3.5-1,.75-.33,1.39-.58,1.95-.74.55-.17.87-.22.94-.15.14.13.22.1.22-.1s.26-.37.78-.5c.44-.2.95-.44,1.56-.7.59-.27,1.18-.55,1.77-.85.59-.3,1.09-.57,1.51-.8.41-.24.68-.42.83-.55.23-.26.33-.41.33-.45,0-.03-.1.02-.33.15l-6.34,2.9c-1.04.46-2.34.96-3.89,1.5M259.74,180.88l.33.3c.07,0,.11-.1.11-.3,0-.13-.11-.2-.33-.2-.08-.07-.13-.07-.17,0-.03.06-.02.13.06.2M260.97,180.79c.15-.14.22-.27.22-.4,0-.2-.07-.24-.22-.1-.16.13-.24.26-.24.4,0,.2.07.23.24.1M269.86,178.29c-.96.86-1.74,1.36-2.34,1.49-.45.14-.67.27-.67.4s-.11.2-.33.2c-.38,0-.86.16-1.46.5-1.55.73-3.01,1.36-4.38,1.9-1.37.53-2.55.93-3.51,1.2-.45.13-.76.25-.94.35-.19.1-.17.15.05.15.15,0,.41-.03.78-.1.37-.06.74-.17,1.11-.3l2.67-.9c.37-.13.71-.24.99-.3.3-.07.49-.1.56-.1.07.06.19,0,.33-.2.15-.26.33-.4.56-.4.37,0,1.06-.2,2.06-.59,1-.4,1.72-.77,2.16-1.1.22-.13.54-.32.94-.54.41-.24.8-.42,1.17-.55.29-.13.8-.4,1.5-.8.7-.4,1.43-.83,2.16-1.29.75-.46,1.41-.88,2-1.25.6-.36.94-.62,1.01-.75,0-.06.11-.19.33-.35.22-.16.45-.32.66-.45.23-.14.66-.48,1.29-1.05.62-.56,1.24-1.15,1.83-1.74.6-.6,1.13-1.16,1.62-1.69.47-.54.72-.84.72-.9s.17-.27.55-.59c.14-.14.26-.3.33-.5.07-.2.15-.37.24-.5l.33-.99c.07-.4-.11-.33-.57.2-.73.67-.99.76-.79.3.17-.54-.35-.3-1.54.7-.67.59-1.02,1.01-1.06,1.25-.02.23.25.21.85-.05.44-.2.64-.2.61,0-.04.2-.35.5-.94.9l-1.12.9c0,.14-.1.2-.33.2-.29,0-.71.37-1.23,1.09-.52.54-.92.85-1.22.95-.29.1-.37-.02-.22-.35.07-.2-.05-.27-.33-.2-.23.13-.29.36-.23.69.08.33,0,.57-.22.7-.74.27-.82.2-.22-.2.29-.2.39-.32.27-.35-.11-.03-.38.05-.82.25-.38.2-.57.47-.57.8.15.2.03.51-.38.9-.41.4-.76.59-1.05.59-.23,0-.31-.08-.23-.24.07-.17.23-.32.44-.46.23-.13.49-.29.78-.5.3-.2.37-.3.23-.3-.07,0-.41.14-1.01.4-.52.27-.78.64-.78,1.1,0,.53-.18.86-.55,1-.15.06-.43.24-.84.54-.41.3-.83.62-1.28.95M271.31,176.29c.22,0,.33-.13.33-.4v-.39l-.45.39c-.23.27-.19.4.11.4M284.1,165.32c.07,0,.29-.23.66-.69l.67-1.29c.07-.47-.15-.3-.67.5-.66.99-.88,1.49-.66,1.49M254.73,184.58c-.07.06.05.1.34.1.15,0,.26-.02.33-.05.07-.04.03-.05-.11-.05-.23-.14-.41-.14-.57,0M287.54,164.23c-.06.2-.14.35-.21.45s-.11.08-.11-.05c0-.27-.08-.33-.23-.2v.2c0,.26.03.43.11.5.15.27.24.38.27.35.05-.03.14-.25.28-.65.07-.26.15-.5.23-.7.07-.2.1-.33.1-.39-.07-.14-.21.03-.45.5M287.11,162.14c.22-.2.29-.37.22-.51-.07-.06-.19.03-.33.3-.07.27-.03.33.11.2M286.66,151.27c-.22-.33-.85-.93-1.9-1.8-.73-.59-1.25-.99-1.56-1.2-.29-.19-.51-.23-.66-.1-.15.13-.5.32-1.05.55-.56.24-1.17.52-1.85.85l-8.67,4.18-3.11,1.5c-.67.33-1.19.59-1.55.75-.37.16-.69.32-.94.45-.26.13-.55.27-.84.4-.29.14-.68.34-1.11.6-1.34.72-2.42,1.31-3.22,1.74-.81.43-1.46.81-1.9,1.15-.52.46-.85.7-.99.7-.07,0-.22.06-.4.2-.18.14-.72.6-1.6,1.4-.82.66-1.56,1.31-2.23,1.94-.68.63-1.34,1.34-2,2.14l-1.34,1.59c-.22.13-.33.3-.33.51-.15.26-.3.53-.45.79-.15.27-.31.55-.5.86-.19.29-.4.61-.61.94-1.64,2.39-2.45,4.22-2.45,5.48,0,.19.22.56.66,1.1.52.33.67.56.45.69-.15.14-.23.11-.23-.1,0-.13-.15-.26-.44-.4-.37-.07-.49.03-.33.3.15.33.11.53-.11.6-.15.13-.11.36.11.69.29.54.81.99,1.55,1.35.73.36,1.6.67,2.61.94,1,.27,2.04.41,3.12.45,1.07.03,2.09-.05,3.06-.25.67-.14,1-.27,1-.4.14-.14.48-.2,1-.2.59,0,.78-.1.55-.3-.29-.26-.59-.29-.89-.1-.44.27-.88.33-1.33.2-.52,0-.85.06-1.01.19-.07.13-.18.13-.33,0,0-.06-.32-.15-.94-.24-.64-.11-1.36-.19-2.17-.25-3.19-.27-4.78-.83-4.78-1.69,0-.73.37-.9,1.1-.51.52.34.86.51,1.01.51.07.06.28.11.61.15.33.03.68.11,1.06.24,1.4.33,2.7.52,3.9.55,1.18.03,2.18-.02,3-.15,1.03-.27,2.02-.55,2.95-.85.92-.29,1.83-.61,2.73-.94.45-.27.77-.43,1-.5l.44-.2c.07,0,.49-.16,1.23-.5.73-.33,1.63-.73,2.67-1.2,1.19-.54,2.32-1.13,3.39-1.8,1.07-.66,2.02-1.26,2.83-1.79.37-.27.68-.52.94-.75.26-.24.5-.42.72-.55.31-.2.57-.37.78-.5.08,0,.38-.21.89-.64.52-.44,1.06-.92,1.61-1.45.56-.54,1.08-1.03,1.56-1.5.48-.46.72-.73.72-.8s.02-.13.06-.19c.03-.07.06-.14.06-.2s.11,0,.32.2c.3.19.4.1.32-.3-.2-.46-.06-.86.46-1.2.45-.54.66-.86.66-1,0-.33.19-.76.57-1.29.44-.67.82-1.53,1.16-2.59.33-1.07.61-2.15.84-3.25.21-1.1.35-2.12.38-3.09.04-.96-.05-1.68-.28-2.14M247.73,179.19c-.29-.27-.52-.33-.67-.2,0,.2.07.34.23.4.37.2.59.29.66.25s0-.19-.22-.45M287.77,144.89c-.24-.14-.52-.03-.89.3-.38.33-.49.5-.33.5.21,0,.33-.06.33-.2,0-.19.22-.29.65-.29.38-.14.45-.24.24-.3M289.33,144.19c-.23,0-.47.05-.74.15-.25.1-.37.22-.37.35,0,.33.29.3.88-.1.3-.27.38-.4.23-.4M291.57,142.29c.89-.33,1.76-.64,2.61-.94.85-.3,1.51-.51,1.95-.65.88-.2,1.33-.37,1.33-.5-.15-.13,0-.27.45-.4l3.77-1.4c.59-.32.97-.5,1.17-.5.19,0,.24.06.17.2v.25c.02-.06.05-.11.06-.16.14-.31.26-.62.41-.94-.2.11-.41.2-.59.26-.38.13-.89.15-1.56.05-.66-.1-1.37-.02-2.11.25-.52.8-1.04,1.34-1.56,1.64-.51.3-.93.15-1.22-.45,0,.13-.11.13-.33,0-.07-.06-.19.03-.33.3-.15.26-.81.56-2,.89-.3.07-.8.25-1.51.55-.7.3-1.44.6-2.22.9-.78.29-1.81.71-3.06,1.24-.15.07-.32.13-.5.2-.19.07-.43.14-.72.2-.52.13-.85.34-1.01.64-.15.3-.03.52.34.65.29.06.7,0,1.22-.2.3-.2.63-.29,1-.29l.66-.3c.07-.06.47-.25,1.18-.55.7-.3,1.5-.62,2.39-.95M302.67,139.31c.07-.19.14-.37.2-.54-.14-.33-.52-.36-1.19-.06-.51.14-.7.3-.55.5.15.14.15.2,0,.2-.29-.06-.48-.06-.57,0-.06.07,0,.16.24.3.15.13.04.16-.33.1-.44-.14-.81-.06-1.11.2-.08.2-.37.36-.89.5-.22.06-.72.24-1.51.55-.77.3-1.6.63-2.44.99-.85.37-1.64.7-2.34,1-.71.3-1.1.48-1.17.55-.22.13-.34.21-.34.24,0,.03.19.02.57-.05.07,0,.42-.13,1.05-.4.64-.27,1.32-.55,2.06-.85.74-.3,1.41-.56,2-.8.59-.24.97-.38,1.11-.45.59-.27,1.04-.4,1.34-.4.2-.06.52-.17.89-.3.36-.13.75-.29,1.11-.45.38-.17.71-.32,1-.45.3-.14.45-.24.45-.3.06-.06.21-.1.42-.1M302.67,147.59c-.1-.07-.14-.02-.14.15,0,.14.03.17.14.1.1-.1.1-.19,0-.25M304.45,140.98l-.21.36c-.1.17-.26.57-.5,1.19-.24.62-.45,1.21-.65,1.76l-.2.62c-.24.59-.44,1.14-.6,1.68s-.25.94-.25,1.21c0,.17.02.25.04.24.02-.02.08-.19.18-.5.19-.41.3-.6.35-.56.05.03.07-.07.07-.31,0-.35.11-.83.36-1.45.23-.52.48-1.17.74-1.96.26-.8.44-1.42.53-1.86l.15-.41ZM305.33,133.44c.04-.11.08-.24.13-.37l-1.22.45-.67.2h.44c-.74.27-1.5.57-2.28.9-.77.33-1.64.67-2.61.99.07.06-.19.24-.78.5-.59.4-.9.51-.9.3,0-.06.06-.13.13-.2-.59.27-1.21.51-1.84.75-.63.23-1.28.45-1.94.64.29,0,.29.1,0,.3-.3.13-.55.2-.78.2h-.33c-1.48.53-2.91,1.15-4.28,1.84-1.37.7-2.99,1.32-4.84,1.85-.37.13-.76.2-1.16.2h-.06c.29,0,.45.07.45.2-.08.27.12.37.6.3.49-.06,1.13-.27,1.95-.6.45-.2,1.17-.5,2.21-.9,1.04-.4,2.12-.8,3.24-1.2,1.11-.4,2.52-.93,4.22-1.6.23,0,.59-.17,1.11-.5.37-.2.98-.46,1.84-.79.85-.33,1.77-.68,2.77-1.05,1-.37,2.06-.71,3.17-1.05.3-.09.63-.19.93-.27.02-.02.02-.05.03-.07.24-.48.38-.83.46-1.03M313.33,146.09s.11-.03.21-.1c.19-.07.29-.16.29-.26,0-.07-.1-.05-.29.06-.15.06-.21.15-.21.25-.05.04-.05.06,0,.06M318.04,142.69c.21-.37.23-.68.11-.88-.05-.06-.02-.08.07-.05.09.1.23-.03.42-.41.05-.17.11-.34.18-.52.07-.17.15-.31.24-.41.2-.38.24-.55.15-.5-.1.06-.26.27-.5.65-.19.45-.35.67-.49.67-.1,0-.15.06-.15.16,0,.07-.11.19-.32.34-.2.15-.34.19-.38.12-.05,0-.1.11-.15.31v.26l.15-.2c.13-.17.26-.26.36-.26.02,0,0,.11-.15.31-.19.21-.38.25-.57.11-.14-.11-.19-.06-.14.11,0,.17-.05.24-.14.2-.15-.11-.17-.06-.07.15.04.14,0,.15-.15.05-.15-.1-.19-.08-.15.06.1.1,0,.22-.28.36-.24.17-.33.28-.29.31,0,.11-.1.17-.29.2-.24.1-.37.21-.37.32,0,.17-.08.25-.26.25-.2.07-.26.15-.15.26,0,.11-.05.14-.14.11-.15-.11-.23-.07-.23.11,0,.13-.03.2-.13.2s-.14.03-.14.1c.09.07.04.14-.15.21-.14.03-.21.06-.21.07,0,.02.05.1.15.24.13.11.21.17.21.2,0,.04-.1.12-.29.26-.49.28-.76.28-.78,0,0-.06-.02-.1-.04-.07-.02.02-.03.07-.03.18,0,.2-.02.31-.07.31-.14-.03-.35.06-.6.29-.27.22-.37.37-.32.44,0,.1-.03.14-.07.1-.14-.07-.29-.03-.42.1-.15.14-.21.29-.21.46s-.05.15-.15-.05c-.1-.07-.22,0-.36.2-.19.28-.32.4-.42.37-.1,0-.24.06-.42.2-.2.14-.29.24-.29.31,0,.2.81-.22,2.42-1.29.42-.31.82-.59,1.2-.85.39-.26.76-.54,1.13-.83.39-.29.77-.61,1.21-.95.43-.34.9-.74,1.42-1.19.47-.41.82-.81,1.03-1.19M318,148.1l-.21-.36v.56c0,.18.02.32.04.45.02.11.03.21.03.28,0,.14.02.18.07.1.05-.06.12-.19.22-.36s.04-.4-.15-.67M319.35,144.03c-.19-.14-.29-.11-.29.11,0,.17-.09.36-.28.56-.28.21-.52.95-.71,2.22-.1.38-.13.6-.11.67.03.06.11.05.25-.06.19-.2.29-.37.29-.51,0-.07.03-.2.14-.41.1-.2.19-.43.29-.67.33-.66.52-1.11.56-1.34.05-.25,0-.43-.14-.57M320.14,142.95l-.14.15c0,.2.05.24.14.1.1-.1.1-.19,0-.25M320.67,141.5c-.17.11-.37.29-.61.57l-.35.36.42-.2c.33-.11.49-.21.49-.31l.15-.31c.09-.17.06-.21-.11-.11M320.92,139.8c.05-.07.05-.1,0-.08-.05.02-.1.06-.14.13-.05.07-.1.12-.15.16-.04.03-.06.09-.06.15,0,.03.06.02.21-.05.09-.14.14-.24.14-.31M321.2,140.77c-.06-.03-.12.02-.21.15-.11.11-.07.12.07.06.19-.07.24-.14.15-.21M330,146.2c.15,0,.25-.11.36-.32.37-.51.3-.55-.22-.1-.24.28-.35.46-.35.56.09.14.06.27-.11.39-.17.12-.3.15-.39.08-.1-.04-.3.06-.61.3-.3.24-.46.44-.46.57,0,.04.04.02.14-.05.15-.14.21-.14.21,0,.05.06.15.04.29-.07.15-.12.33-.27.57-.45.33-.27.54-.46.6-.56.07-.11.06-.19-.04-.26-.09-.06-.09-.1,0-.1M348.11,148.78c-.1-.03-.31.07-.64.31l-.57.41.64-.32c.09-.06.18-.11.25-.13.07-.02.13-.06.17-.12.06-.04.1-.09.15-.16M349.03,148.41h-.07s-.08,0-.11-.02c-.02-.02-.06-.02-.1-.02-.19,0-.24.03-.14.11.09.06.19.09.29.07.09-.02.14-.06.14-.13M350.1,148.39s-.12,0-.36.02c-.19,0-.35.06-.5.15-.1.21.1.21.57,0,.19-.1.29-.16.29-.18M352.44,146.3c-.1,0-.15.02-.15.05,0,.11-.07.16-.21.16-.14,0-.42.14-.85.41-.42.28-.64.45-.64.52,0,.06-.19.17-.57.31-.32.14-.55.25-.64.36,0,.07.11.07.35,0,.1-.06.22-.13.36-.18.14-.05.26-.1.35-.13.15-.06.35-.18.61-.33.26-.16.5-.31.71-.46.21-.15.39-.3.53-.44.15-.14.19-.23.15-.26M355.21,146.04s-.07.07-.07.11c.05-.03.07-.06.07-.11M356.77,144.91c-.05.06-.26.24-.65.51l-.55.37h-.07c.24-.21.48-.44.74-.7s.4-.42.4-.49c0-.04-.07.01-.21.15-.15.14-.3.29-.47.46-.16.17-.41.41-.74.72.06,0,.08.02.06.04.02-.02.04-.02.05-.04.03-.03.08-.07.18-.11l.07-.05c.09.03.2.05.35.05s.29-.05.43-.15c.19-.14.29-.29.35-.44.05-.15.07-.27.07-.33M357.13,144.34c-.1.06-.15.14-.15.2,0,.07.02.1.07.08.05-.01.1-.08.14-.18.1-.1.07-.14-.06-.1M355.42,145.79s.02.05.07.05v-.05h-.07ZM328.87,147.18c-.19.2-.24.31-.14.31s.22-.07.39-.24c.16-.15.19-.26.09-.33l-.34.26ZM353.65,145.11c-.1.07-.14.12-.14.15.09-.06.14-.12.14-.15M436.78,141.19c-.19,0-.35.05-.5.15l.56-.15h-.07ZM420.95,134.58c.09,0,.14-.03.14-.11-.1,0-.14.03-.14.11M438.2,141.03c-.1-.14-.55-.08-1.36.15.61,0,1.02,0,1.21-.02.18-.02.24-.06.15-.13M419.18,159.11c.09-.07.13-.14.13-.21,0-.1-.04-.12-.13-.05-.1.07-.15.14-.15.2,0,.11.05.12.15.06M314.53,145.31c0,.15.16.07.5-.2l.29-.36-.36.25c-.28.14-.42.24-.42.31M316.23,143.87l.21-.15c.19-.11.29-.19.29-.26-.1,0-.22.07-.36.21l-.14.2ZM408.52,151.93c.1,0,.19-.06.29-.15,0-.03,0-.06.03-.08.02-.02.04-.04.04-.07v-.06c-.1,0-.2.07-.29.21-.15.1-.17.15-.07.15M405.72,149.91c-1.58.9-3.21,1.64-4.86,2.22-1.66.59-3.22.83-4.69.72-.14,0-.41-.03-.82-.11-.4-.07-.79-.14-1.16-.2-1.37-.31-2.51-.85-3.41-1.6-.9-.76-1.66-1.79-2.28-3.1-.23-.48-.38-.86-.42-1.15-.05-.29-.07-.65-.07-1.06,0-.69-.07-1.02-.22-.99-.14.07-.19-.08-.14-.44.05-.36.16-.76.36-1.21.37-.93.87-1.83,1.49-2.71.61-.88,1.51-1.92,2.69-3.12.52-.48,1.14-1.01,1.85-1.58.71-.56,1.4-1.04,2.06-1.42.1-.06.29-.17.57-.31.29-.14.57-.29.86-.46l1.06-.62s.21-.11.5-.24c.28-.12.61-.25.99-.38.38-.14.73-.27,1.07-.39.32-.12.56-.18.71-.18.14-.04.44-.06.88-.06s.73.02.82.06c.1.03.38.06.85.07.47.02.83.15,1.07.39.05.06.16.11.36.11s.32.03.42.1l.99.52c.52.28.89.62,1.1,1.03.2.41.39.85.54,1.34.09.31.06.71-.11,1.24-.17.51-.44,1.07-.82,1.65-.24.31-.74.79-1.52,1.44-.78.66-1.53,1.21-2.24,1.66l-.99.67s-.24.12-.57.26c-.33.14-.72.3-1.17.49-.45.19-.91.37-1.38.52-.47.15-.85.28-1.14.38-.28.11-.53.19-.74.26-.22.06-.35.14-.39.2-.1.07-.43.11-.99.11-1.29,0-2.18-.36-2.7-1.08-.24-.28-.41-.38-.54-.32-.11.07-.37.35-.74.83l-.57.72c-.1.07-.24.28-.42.62s-.41.76-.64,1.24c-.19.41-.31.85-.36,1.29-.04.45,0,.76.15.93.15.17.5.35,1.07.52.57.17,1.23.29,1.99.36,1.32.11,2.63,0,3.91-.31,1.28-.31,2.53-.72,3.76-1.24.81-.31,1.59-.61,2.35-.9.75-.29,1.16-.42,1.2-.39.09.03.11.02.07-.05,0-.07.24-.23.71-.46.24-.07.48-.17.74-.31.26-.14.49-.28.67-.42.19-.1.36-.19.5-.26.15-.06.21-.08.21-.05.1.06.15.05.15-.06,0-.1.14-.16.42-.16.24,0,.41-.08.5-.25.05-.11.15-.15.28-.15.1.03.24.05.43.05h.02s.06-.03.13-.03c-.02,0-.03.02-.04.02.04,0,.07,0,.11-.02h.06c0,.19-.05.28-.14.28-.05,0-.08-.01-.11-.06-.05.06-.13.08-.25.06-.14-.04-.21-.01-.21.05,0,.11-.21.24-.63.41-.38.14-.57.25-.57.36s-.05.12-.15.05c-.14,0-.3.06-.5.16-.24.1-.35.17-.35.2,0,.03.06.08.21.15.19.07.36.05.5-.05.19-.07.31-.09.36-.06.09.07.16,0,.21-.2.09-.17.19-.24.29-.21.04.04.3-.01.78-.15.32-.13.45-.25.39-.36-.07-.1-.03-.17.17-.2.1,0,.15-.07.15-.21,0-.17.07-.2.21-.1.33.17.5.11.5-.15,0-.07-.07-.06-.21.05-.1.11-.14.09-.14-.05s.24-.28.71-.41c.09,0,.26-.06.5-.18.24-.12.49-.24.75-.37.25-.12.6-.3,1.02-.55,0-.06.07-.08.21-.05.18.07.28.05.28-.05,0-.14.1-.2.29-.2s.19-.02,0-.06c-.15-.03-.1-.03.13,0,.24.04.45-.01.65-.15.1-.06.08-.16-.04-.28-.11-.11-.16-.18-.11-.18.1,0,.22-.05.36-.16,0-.1.16-.19.5-.26.38-.03.52.07.43.29-.1.23-.41.49-.93.81-.14.06-.36.18-.64.33-.29.15-.57.31-.85.46-.29.15-.64.36-1.07.64,0,.11-.07.12-.21.05-.15-.1-.18-.08-.08.06.15.1.05.15-.28.15-.29,0-.42.06-.42.2s.05.21.14.21c.15,0,.21-.04.21-.1,0-.11.1-.16.28-.16.1,0,.22-.04.36-.13.13-.08.29-.18.42-.29.23-.17.55-.36.93-.57.37-.2.74-.38,1.1-.54.3-.14.55-.22.75-.26-.03.02-.06.05-.11.08-.49.37-1.24.97-2.23,1.78-.99.81-2.2,1.73-3.59,2.76-1.39,1.03-2.89,1.99-4.48,2.89M410.33,145.85c.41-.32.69-.6.86-.82-.06.02-.11.05-.19.08-.24.11-.41.28-.53.52-.04.08-.09.15-.15.22M404.76,137.21c0,.14-.07.21-.22.21-.66.14-.99.31-.99.51,0,.11-.05.16-.14.16-.1-.03-.19.05-.29.26-.1.24-.19.36-.29.36-.05,0-.18.06-.39.19-.21.12-.44.25-.67.41-.24.15-.46.3-.68.44-.21.14-.32.23-.32.26,0,.2.24.14.71-.2.1-.07.2-.13.32-.19.11-.05.2-.07.24-.07.1,0,.24-.07.43-.21.19-.13.4-.28.64-.46.66-.51,1.12-.85,1.38-1.02.26-.18.44-.26.54-.26.14,0,.21-.03.21-.11,0-.03.06-.11.18-.23.11-.12.25-.25.39-.39l.64-.62c0-.11.05-.26.14-.46.1-.21.15-.34.15-.39s-.07-.04-.21.02c-.15.07-.26.21-.36.41-.05.17-.24.41-.57.72-.32.31-.56.46-.71.46-.1,0-.14.07-.14.2M394.97,140.98c0,.07.08.1.24.1.17,0,.58-.08,1.25-.26.32-.06.63-.15.89-.25.26-.11.44-.19.53-.26l.43-.2s.15-.05.32-.13c.16-.09.37-.18.6-.29.47-.28.76-.41.85-.41.42-.24.76-.44,1.02-.59s.51-.31.75-.46c.24-.15.4-.27.5-.33s.21-.16.36-.29c.14-.12.28-.24.42-.33.15-.07.32-.2.53-.39.22-.19.4-.37.54-.55l.57-.62h-.71c-.53,0-1.14.11-1.85.34-.72.22-1.25.47-1.64.74-.52.38-.84.61-.97.67-.11.07-.2.11-.24.11-.1,0-.38.16-.85.49-.47.32-.97.7-1.49,1.11-.52.41-.99.8-1.42,1.16-.42.37-.64.58-.64.65M400.71,148.36l-.5.26c-.38.24-.47.36-.29.36.05,0,.21-.11.5-.31l.28-.31ZM402.88,147.41s.09,0,.18-.08c.19-.03.26-.08.22-.15,0-.07-.1-.03-.29.11-.09.06-.12.11-.11.13M403.31,147.46s-.08,0-.18.02c-.37.14-.42.2-.15.2.1,0,.19-.05.29-.15.04-.03.06-.06.03-.07M404.41,146.76c-.19-.03-.28,0-.28.1.1.07.19.11.28.11s.16-.04.21-.11c.1-.06.02-.1-.21-.1M405.76,146.2c.1,0,.19-.04.28-.11,0-.07-.07-.09-.21-.06-.15.04-.24.07-.25.11-.02.03.03.06.18.06M405.68,146.45s.06.02.1.02c.21.06.33.05.33-.02,0-.11.04-.12.14-.05.14.1.21.08.21-.06,0-.06.02-.1.07-.1.14,0,.32-.05.57-.16.24-.07.25-.14.06-.21-.09,0-.26.04-.5.11-.24.07-.5.19-.78.36-.06.05-.15.07-.21.11M409.09,151.51s.09.02.28-.05c.15-.11.22-.21.22-.31,0-.04-.08,0-.22.1-.19.14-.28.23-.28.26"/>
      </g>
      <g>
        <path class="cls-1" d="M179.53,71.4l-1.99-.93.42-2.17c.33-1.78-.11-3.61-1.26-4.99-1.16-1.4-2.92-2.23-4.73-2.23-1.67,0-3.24.69-4.4,1.93l-1.5,1.6-1.93-1.06c-.91-.5-1.93-.76-2.94-.76-2.13,0-4.13,1.16-5.23,3.02-1.1,1.85-1.13,4.09-.08,6l1.06,1.92-1.6,1.51c-1.83,1.72-2.41,4.32-1.5,6.65.92,2.34,3.13,3.85,5.61,3.85.39,0,.79-.04,1.18-.11l2.16-.41.93,1.99c1.01,2.15,3.1,3.49,5.48,3.49,3.11,0,5.65-2.23,6.03-5.32l.28-2.18,2.18-.27c2.7-.34,4.81-2.38,5.24-5.08.42-2.7-.96-5.29-3.42-6.45M160.78,90.99c-2.34,0-4.48,1.27-5.94,3.49-.79,1.22-1.38,2.72-1.75,4.47-1.55-2.16-4-3.62-6.83-3.84-.24-.02-.48-.03-.71-.03-2.34,0-4.58.88-6.3,2.47-1.73,1.59-2.8,3.77-2.96,6.12-.15,1.97.33,3.84,1.27,5.43l-3.2,2.14c-.78-.3-1.59-.63-2.36-.95-2.29-.95-4.26-1.78-6.24-1.78-.87,0-1.69.17-2.44.5-1.78.81-3.09,1.73-4.01,2.82-1.27,1.52-1.77,3.36-1.38,5.19.29,1.35,1.04,2.59,2.23,3.73l-37.64,25.22c-2.41,1.61-3.93,4.22-4.16,7.15-.26,3.21,1.05,6.48,3.49,8.75,1.57,1.45,3.61,2.27,5.74,2.33l33.88.8h.02s20.54,26.01,20.54,26.01l1.47,1.87c1.32,1.66,3.18,2.79,5.23,3.18.64.11,1.29.17,1.93.17,2.78,0,5.45-1.12,7.34-3.09.62-.65,1.15-1.36,1.56-2.13.84-1.52,1.25-3.25,1.18-5.06l-1.06-29.32c.65-1.12,1.14-2.25,1.42-3.28,0-.03,0-.06.03-.1,1.57-6.33,1.06-12.66.57-18.81-.7-8.82-1.3-16.44,3.82-23.12.15-.18.28-.39.38-.6,3.08-5.98,3.44-11.97.97-16.02-1.43-2.35-3.65-3.7-6.1-3.7"/>
        <path class="cls-2" d="M177.24,79.22l-3.26.41c-1.06.13-1.89.96-2.02,2.02l-.41,3.26c-.17,1.32-1.25,2.05-2.34,2.05-.83,0-1.66-.43-2.09-1.35l-1.39-2.98c-.39-.83-1.22-1.34-2.12-1.34-.14,0-.29,0-.44.05l-3.22.62c-.17.03-.33.04-.48.04-2.02,0-3.15-2.55-1.56-4.04l2.39-2.25c.78-.72.96-1.9.45-2.83l-1.59-2.88c-.92-1.66.41-3.47,2.04-3.47.37,0,.75.1,1.13.31l2.88,1.59c.35.19.74.29,1.12.29.63,0,1.25-.26,1.71-.74l2.24-2.4c.5-.53,1.09-.75,1.68-.75,1.35,0,2.62,1.18,2.32,2.78l-.62,3.23c-.2,1.05.33,2.1,1.3,2.55l2.98,1.4c2.12.99,1.62,4.14-.7,4.43"/>
        <path class="cls-5" d="M150.67,191.01c-.32,0-.64-.03-.96-.09-.83-.16-1.58-.63-2.1-1.29l-22.02-27.87c-.95-1.21-2.43-1.95-3.99-1.98l-33.86-.81c-.85,0-1.7-.35-2.34-.93-2.33-2.16-2.62-5.96.03-7.74l39.6-26.53c.64.29,1.35.56,2.09.84,2.4.88,5.02,1.56,7.37,1.94-.21.21-.43.43-.68.66-2.04,1.89-4.58,4-7.02,6.05-3.71,3.09-6.94,5.78-8.67,7.85-2.11,2.02-2.79,4.92-1.76,7.66.51,1.37,1.4,2.56,2.59,3.46,1.3.98,2.8,1.51,4.37,1.51s3.17-.57,4.48-1.65c9.91-6.73,14.44-8.41,16.17-8.84.45,1.6.4,4.07.35,6.31-.07,3.02-.14,6.15.8,8.95.19.57.52,1.09.94,1.53,1.9,1.94,3.93,2.34,5.31,2.34,1.18,0,2.28-.29,3.29-.78l.88,24.53c.1,2.85-2.21,4.89-4.87,4.89"/>
        <path class="cls-6" d="M140.3,103.98c.2-2.77,2.52-4.89,5.25-4.89.14,0,.28,0,.41.02,2.9.22,5.08,2.75,4.87,5.66,0,.07-.03.13-.03.2-.3,2.68-2.56,4.68-5.23,4.68-.13,0-.27,0-.4-.02-1.87-.14-3.43-1.23-4.26-2.78-.47-.85-.68-1.84-.6-2.88M162.34,108.87c-2.04,2.66-3.31,5.44-4.07,8.3-2.99,11.18,1.81,23.63-1.03,35.1-.4,1.46-1.44,3.3-2.75,4.57-.94.91-2.02,1.52-3.12,1.52-.82,0-1.64-.34-2.44-1.14-1.7-5.01.96-13.34-2.32-17.57-.41-.38-1.01-.55-1.77-.55-4.56,0-14.45,6.37-19.47,9.79-.66.59-1.37.84-2.06.84-2.62,0-4.84-3.62-2.26-5.87,4.42-5.56,27.68-20.98,17.54-20.98h-.34c-2.31,0-5.92-.71-9.15-1.83-2.12-.74-4.08-1.63-5.43-2.63-2.41-1.79-2.85-3.86,1.34-5.75.22-.11.5-.14.78-.14,1.14,0,2.74.66,4.56,1.41,1.98.82,4.19,1.77,6.29,2.06.43.07.85.1,1.29.1.15,0,.31,0,.45,0,.53.02,1.09.04,1.62.04,4.92,0,9.18-1.27,12.17-3.96,1.32-1.17,2.39-2.62,3.16-4.36.75-1.65,1.23-3.59,1.39-5.78.37-4.91,2.24-7.02,4.06-7.02,2.98,0,5.79,5.66,1.56,13.87"/>
      </g>
    </g>
  </g>
</svg>